<?xml version="1.0" encoding="UTF-8"?>
<svg id="Layer_2" data-name="Layer 2" xmlns="http://www.w3.org/2000/svg" viewBox="0 0 713.49 135.23">
  <defs>
    <style>
      .cls-1 {
        fill: #fff;
      }
    </style>
  </defs>
  <g id="Layer_6" data-name="Layer 6">
    <g>
      <path class="cls-1" d="M288.65,94.03c-.6-.28-1.31-.21-1.83.19-3.52,2.67-5.56,4.89-10.81,3.8-3.64-.76-9.77-4.97-15.98-9.94,12.65-8.72,20.95-23.3,20.95-39.79,0-26.63-21.66-48.29-48.29-48.29h-79.46c-.39,0-.73.28-.8.67-.07.39.14.77.51.91.03.01,2.88,1.14,5.7,4.48,3.14,3.72,4.63,8.24,5.27,12.39v78.55c-.49,4.56-1.92,9.81-5.49,14.04-2.81,3.33-5.67,4.47-5.7,4.48-.37.14-.58.52-.51.91.07.39.41.67.8.67h56.91c.39,0,.73-.28.8-.67.07-.39-.14-.77-.51-.91-.03-.01-2.88-1.14-5.7-4.48-3.56-4.22-5-9.47-5.49-14.04v-12.23c.71,0,1.38,0,2.03,0,11.99.03,15.11.64,22.95,11.04,2.33,3.09,5.07,7.04,8.59,12.11,4.65,6.69,10.12,12.93,16.18,17.72,5.78,4.57,12.11,7.8,18.77,8.82,6.26.61,12.33-.2,17.97-2.93.32-.16.64-.31.95-.48,13.76-7.27,17.4-29.73,2.17-37ZM232.69,61.47h-32.74v-26.34h32.74c7.26,0,13.17,5.91,13.17,13.17s-5.91,13.17-13.17,13.17Z"/>
      <path class="cls-1" d="M136.45,94.03c-.6-.28-1.31-.21-1.83.19-3.52,2.67-5.56,4.89-10.81,3.8-3.64-.76-9.77-4.97-15.98-9.94,12.65-8.72,20.95-23.3,20.95-39.79C128.79,21.66,107.12,0,80.49,0H1.03C.64,0,.3.28.23.67c-.07.39.14.77.51.91.03.01,2.88,1.14,5.7,4.48,3.14,3.72,4.63,8.24,5.27,12.39v78.55c-.49,4.56-1.92,9.81-5.49,14.04-2.81,3.33-5.67,4.47-5.7,4.48-.37.14-.58.52-.51.91.07.39.41.67.8.67h56.91c.39,0,.73-.28.8-.67.07-.39-.14-.77-.51-.91-.03-.01-2.88-1.14-5.7-4.48-3.56-4.22-5-9.47-5.49-14.04v-12.23c.71,0,1.38,0,2.03,0,11.99.03,15.11.64,22.95,11.04,2.33,3.09,5.07,7.04,8.59,12.11,4.65,6.69,10.12,12.93,16.18,17.72,5.78,4.57,12.11,7.8,18.77,8.82,6.26.61,12.33-.2,17.97-2.93.32-.16.64-.31.95-.48,13.76-7.27,17.4-29.73,2.17-37ZM80.49,61.47h-32.74v-26.34h32.74c7.26,0,13.17,5.91,13.17,13.17s-5.91,13.17-13.17,13.17Z"/>
      <path class="cls-1" d="M573,72.53c4.15-7.13,6.53-15.41,6.53-24.23,0-26.63-21.66-48.29-48.29-48.29h-79.46c-.39,0-.73.28-.8.67-.07.39.14.77.51.91.03.01,2.88,1.14,5.7,4.48,3.14,3.72,4.63,8.24,5.27,12.39v78.55c-.49,4.56-1.92,9.81-5.49,14.04-2.81,3.33-5.67,4.47-5.7,4.48-.37.14-.58.52-.51.91.07.39.41.67.8.67h56.91c.39,0,.73-.28.8-.67.07-.39-.14-.77-.51-.91-.03-.01-2.88-1.14-5.7-4.48-3.56-4.22-5-9.47-5.49-14.04v-14.1c4.99,4.85,11.01,8.64,17.71,10.99,6.19,1.72,12.79,2.33,19.55,1.62,16.1-1.69,29.75-10.5,38.16-22.97ZM531.24,61.47h-32.74v-26.34h32.74c7.26,0,13.17,5.91,13.17,13.17s-5.91,13.17-13.17,13.17Z"/>
      <path class="cls-1" d="M444.37,115.5s-2.88-1.14-5.7-4.48c-3.56-4.22-5-9.47-5.49-14.04v-38.45c0-28.15-19.97-51.71-46.48-57.29-3.89-.82-7.92-1.25-12.06-1.25s-8.16.43-12.06,1.25c-26.51,5.57-46.48,29.14-46.48,57.29v38.45c-.49,4.56-1.92,9.81-5.49,14.04-2.81,3.33-5.67,4.47-5.7,4.48-.37.14-.58.52-.51.91.07.39.41.67.8.67h56.91c.39,0,.73-.28.8-.67.03-.19,0-.37-.08-.53-.09-.17-.24-.3-.43-.38-.03-.01-2.88-1.14-5.7-4.48-3.56-4.22-5-9.47-5.49-14.04v-12.11h46.83v12.11c-.49,4.56-1.92,9.81-5.49,14.04-2.81,3.33-5.67,4.47-5.7,4.48-.19.07-.34.21-.43.38-.08.16-.12.34-.08.53.07.39.41.67.8.67h56.91c.39,0,.73-.28.8-.67.07-.39-.14-.77-.51-.91ZM398.06,61.47h-46.83v-2.93c0-12.91,10.5-23.42,23.42-23.42s23.42,10.5,23.42,23.42v2.93Z"/>
      <path class="cls-1" d="M713.11,105.35c-.51-.51-1.33-.51-1.84,0-4.57,4.56-11.99,4.56-16.56,0-2.7-2.7-6.3-4.19-10.12-4.19-.15,0-.29,0-.44.01,4.09-4.21,6.6-9.96,6.6-16.29,0-12.93-10.48-23.42-23.42-23.42h-33.66c-.23,0-.46,0-.68-.02-.03,0-.07,0-.1,0-.19-.01-.39-.03-.58-.04-.02,0-.03,0-.05,0-1.89-.2-3.66-.8-5.23-1.72-2.5-1.46-4.48-3.73-5.58-6.45,0-.01,0-.02-.01-.03-.07-.18-.14-.37-.21-.56-.01-.03-.02-.06-.03-.09-.06-.17-.11-.34-.16-.51-.01-.05-.03-.1-.04-.15-.04-.16-.09-.31-.12-.47-.02-.07-.03-.13-.05-.2-.03-.14-.06-.29-.09-.43-.02-.08-.03-.16-.04-.25-.02-.13-.04-.26-.06-.4-.01-.09-.02-.19-.04-.28-.01-.12-.03-.25-.04-.37,0-.1-.02-.21-.02-.31,0-.12-.01-.24-.02-.36,0-.11,0-.22,0-.33,0-.06,0-.13,0-.19,0-.05,0-.11,0-.16,0-.11,0-.22,0-.33,0-.12,0-.23.02-.35,0-.1.01-.2.02-.3,0-.11.02-.22.03-.32,0-.03,0-.05.01-.08,0-.07.02-.14.03-.21.02-.17.05-.34.08-.51,0-.02,0-.04.01-.06,1.1-6.16,6.48-10.85,12.96-10.85h.03c.07,0,.15,0,.22,0h36.74c4.56.49,9.81,1.92,14.04,5.49,3.33,2.81,4.47,5.67,4.48,5.7.16.41.61.63,1.04.47.33-.12.53-.47.53-.82v-25.87c.49-4.56,1.92-9.81,5.49-14.04,2.81-3.33,5.67-4.47,5.7-4.48.41-.16.63-.61.47-1.04-.12-.33-.47-.53-.82-.53h-67.43c-26.09,0-47.96,20.93-48.75,46.83h-.03c0,.24,0,.49,0,.73,0,.28,0,.55,0,.83h.03c.83,20.29,17.53,36.49,38.02,36.49h40.7c7.27,0,13.17,5.9,13.17,13.17,0,2.22-.55,4.31-1.53,6.15-.45.36-.89.74-1.31,1.16-4.56,4.56-11.99,4.56-16.56,0-2.7-2.7-6.3-4.19-10.12-4.19s-7.42,1.49-10.12,4.19c-4.3,4.3-11.07,4.62-15.74.74-.55-.46-1.37-.38-1.83.17-.46.55-.38,1.37.17,1.83,2.67,2.22,5.91,3.32,9.13,3.32,3.67,0,7.32-1.42,10.12-4.22,2.21-2.21,5.15-3.43,8.28-3.43s6.07,1.22,8.28,3.43c5.58,5.58,14.66,5.58,20.24,0,.68-.68,1.42-1.26,2.22-1.75.19-.1.38-.21.57-.32,1.67-.89,3.54-1.36,5.49-1.36,3.13,0,6.07,1.22,8.28,3.43,5.58,5.58,14.66,5.58,20.24,0,.51-.51.51-1.33,0-1.84Z"/>
      <path class="cls-1" d="M637.76,116.7c-.25.05-.48.17-.67.36-2.25,2.25-5.19,3.38-8.14,3.42-2.95-.04-5.88-1.18-8.13-3.42-.19-.19-.42-.31-.67-.36-2.66-2.48-6.09-3.84-9.74-3.84s-7.42,1.49-10.12,4.19c-4.57,4.56-11.99,4.57-16.56,0-.51-.51-1.33-.51-1.84,0-.51.51-.51,1.33,0,1.84,2.79,2.79,6.45,4.18,10.12,4.18s7.33-1.39,10.12-4.18c2.21-2.21,5.15-3.43,8.28-3.43s6.07,1.22,8.28,3.43c2.83,2.83,6.55,4.22,10.27,4.18.05,0,.1,0,.14,0,3.66,0,7.33-1.4,10.12-4.18,4.57-4.56,11.99-4.57,16.56,0,.51.51,1.33.51,1.84,0,.51-.51.51-1.33,0-1.84-5.46-5.46-14.26-5.57-19.86-.36Z"/>
      <path class="cls-1" d="M600.67,128.84c-.25.05-.48.17-.67.36-2.18,2.18-5.06,3.39-8.13,3.43-3.07-.04-5.96-1.25-8.13-3.43-.19-.19-.42-.31-.67-.36-5.6-5.22-14.41-5.1-19.86.36-.51.51-.51,1.33,0,1.84.51.51,1.33.51,1.84,0,4.57-4.56,11.99-4.57,16.56,0,2.7,2.7,6.3,4.19,10.12,4.19.05,0,.1,0,.15,0,.05,0,.1,0,.15,0,3.82,0,7.42-1.49,10.12-4.19,4.57-4.56,11.99-4.56,16.56,0,.51.51,1.33.51,1.84,0,.51-.51.51-1.33,0-1.84-5.46-5.46-14.26-5.57-19.86-.36Z"/>
    </g>
  </g>
</svg>