<?xml version="1.0" encoding="UTF-8"?>
<svg id="Layer_2" data-name="Layer 2" xmlns="http://www.w3.org/2000/svg" viewBox="0 0 460.88 460.88">
  <defs>
    <style>
      .cls-1 {
        fill: #f9b418;
      }

      .cls-2 {
        fill: #3c4263;
      }

      .cls-3 {
        fill: #3d504b;
      }

      .cls-4 {
        fill: #f05123;
      }

      .cls-5 {
        fill: #bee2f5;
      }

      .cls-6 {
        fill: #fff;
      }

      .cls-7 {
        fill: #141921;
      }

      .cls-8 {
        fill: #3f6189;
      }
    </style>
  </defs>
  <g id="Layer_7" data-name="Layer 7">
    <g>
      <g>
        <circle class="cls-7" cx="230.44" cy="230.44" r="230.44"/>
        <path class="cls-6" d="M176.36,139.35l16.85,41.68c1.19,3.56.09,7.03-2.2,9.31l39.43,39.43,39.43-39.43c-2.28-2.28-3.38-5.75-2.2-9.31l16.85-41.68c.45-1.34,1.2-2.56,2.2-3.56l36-36c-26.07-18.45-57.91-29.29-92.28-29.29s-66.2,10.84-92.28,29.29l36,36c1,1,1.75,2.22,2.2,3.56Z"/>
        <g>
          <path class="cls-1" d="M209.5,297.08c11.57-11.57,30.32-11.57,41.89,0,11.57,11.57,30.32,11.57,41.89,0,.76-.76,1.55-1.46,2.36-2.12l-65.19-65.19-65.19,65.19c.81.66,1.6,1.36,2.36,2.12,11.57,11.57,30.32,11.57,41.89,0Z"/>
          <path class="cls-7" d="M188.55,308.7c-8.34,0-16.69-3.18-23.04-9.53-.66-.66-1.37-1.3-2.13-1.91l-2.56-2.07,69.62-69.62,69.62,69.62-2.56,2.07c-.75.61-1.47,1.25-2.13,1.91-12.7,12.7-33.37,12.7-46.08,0-5.04-5.04-11.73-7.81-18.85-7.81s-13.81,2.77-18.85,7.81h0c-6.35,6.35-14.7,9.53-23.04,9.53ZM169.56,294.84l.15.15c10.39,10.39,27.31,10.39,37.7,0h0c6.15-6.15,14.34-9.54,23.04-9.54s16.88,3.39,23.04,9.54c10.39,10.39,27.31,10.39,37.7,0l.15-.15-60.89-60.89-60.89,60.89Z"/>
        </g>
        <path class="cls-5" d="M191.01,190.34c-2.28,2.28-5.75,3.38-9.31,2.2l-41.68-16.85c-1.34-.45-2.56-1.2-3.56-2.2l-36.11-36.11c-18.79,26.22-29.85,58.35-29.85,93.06,0,24.53,5.54,47.76,15.42,68.53,11.64,9.63,28.91,9,39.8-1.89,10.81-10.81,27.9-11.51,39.53-2.12l65.19-65.19-39.43-39.43Z"/>
        <g>
          <path class="cls-1" d="M295.64,294.96l18.82-18.63c1.79-1.79,4.69-1.79,6.48,0l2.62,2.62,13.44-13.44c1.44-1.44,3.32-2.19,5.21-2.24h8.72l16.84-16.84c3.58-3.58,9.38-3.58,12.95,0l7.9,7.9c-.09.62-.2,1.25-.3,1.87,1.36-8.39,2.08-17,2.08-25.78,0-34.72-11.06-66.84-29.85-93.06l-36.11,36.11c-1,1-2.22,1.75-3.56,2.2l-41.68,16.85c-3.56,1.19-7.03.09-9.31-2.2l-39.43,39.43,65.19,65.19Z"/>
          <path class="cls-7" d="M295.62,299.14l-69.37-69.37,43.62-43.62,2.09,2.09c1.66,1.66,3.97,2.22,6.2,1.51l41.76-16.88c.9-.3,1.73-.81,2.4-1.48l38.58-38.58,2.03,2.84c19.89,27.76,30.41,60.53,30.41,94.79,0,7.61-.54,15.29-1.6,22.86h.01s-.22,1.49-.22,1.49c-.07.5-.16,1-.24,1.49l-.06.39s0,.01,0,.02l-4.28-.69-.44.44-.62-.62-.51-.08h0,0c.02-.12.04-.25.06-.37l-6.83-6.83c-1.17-1.17-2.73-1.82-4.38-1.82s-3.21.64-4.38,1.82l-17.71,17.7h-9.9c-1.19.04-2.31.53-3.16,1.37l-15.53,15.53-4.72-4.72c-.63-.63-1.66-.63-2.29,0l-20.92,20.71ZM234.63,229.77l61.02,61.02,16.72-16.55c2.93-2.93,7.71-2.93,10.65.01l.53.53,11.34-11.34c1.93-1.93,4.49-3.03,7.22-3.11h.08s7.49,0,7.49,0l15.97-15.97c2.29-2.29,5.33-3.55,8.57-3.55s6.28,1.26,8.57,3.55l3.64,3.64c.65-5.84.98-11.72.98-17.56,0-31.84-9.42-62.35-27.29-88.47l-33.62,33.62c-1.3,1.29-2.89,2.29-4.62,2.88l-41.78,16.88c-3.4,1.13-7.02.71-9.99-1.08l-35.5,35.5Z"/>
        </g>
        <g>
          <path class="cls-4" d="M229.85,324.82c0-31.87,25.83-57.7,57.7-57.7s57.7,25.83,57.7,57.7"/>
          <path class="cls-7" d="M348.21,324.82h-5.92c0-30.18-24.56-54.74-54.74-54.74s-54.74,24.56-54.74,54.74h-5.92c0-33.45,27.21-60.67,60.67-60.67s60.67,27.21,60.67,60.67Z"/>
        </g>
        <g>
          <g>
            <path class="cls-7" d="M311.56,275.36l-9.46,9.46c-1.24,1.24-.36,3.35,1.39,3.35h18.92c1.75,0,2.62-2.11,1.39-3.35l-9.46-9.46c-.77-.77-2.01-.77-2.78,0Z"/>
            <path class="cls-7" d="M322.41,288.54h-18.92c-.96,0-1.79-.55-2.16-1.44-.37-.89-.17-1.86.51-2.54l9.46-9.46c.91-.91,2.39-.91,3.3,0l9.46,9.46c.68.68.87,1.65.51,2.54-.37.89-1.19,1.44-2.16,1.44ZM312.95,275.16c-.41,0-.82.16-1.13.47l-9.46,9.46c-.55.55-.54,1.26-.35,1.74s.69.98,1.47.98h18.92c.78,0,1.27-.51,1.47-.98s.21-1.18-.35-1.74l-9.46-9.46c-.31-.31-.72-.47-1.13-.47Z"/>
          </g>
          <g>
            <path class="cls-7" d="M311.56,265.9l-9.46,9.46c-1.24,1.24-.36,3.35,1.39,3.35h18.92c1.75,0,2.62-2.11,1.39-3.35l-9.46-9.46c-.77-.77-2.01-.77-2.78,0Z"/>
            <path class="cls-7" d="M322.41,279.08h-18.92c-.96,0-1.79-.55-2.16-1.44-.37-.89-.17-1.86.51-2.54l9.46-9.46c.91-.91,2.39-.91,3.3,0l9.46,9.46c.68.68.87,1.65.51,2.54-.37.89-1.19,1.44-2.16,1.44ZM312.95,265.69c-.41,0-.82.16-1.13.47l-9.46,9.46c-.55.55-.54,1.26-.35,1.74s.69.98,1.47.98h18.92c.78,0,1.27-.51,1.47-.98s.21-1.18-.35-1.74l-9.46-9.46c-.31-.31-.72-.47-1.13-.47Z"/>
          </g>
          <g>
            <path class="cls-7" d="M311.56,257.33l-9.46,9.46c-1.24,1.24-.36,3.35,1.39,3.35h18.92c1.75,0,2.62-2.11,1.39-3.35l-9.46-9.46c-.77-.77-2.01-.77-2.78,0Z"/>
            <path class="cls-7" d="M322.41,270.51h-18.92c-.96,0-1.79-.55-2.16-1.44-.37-.89-.17-1.86.51-2.54l9.46-9.46c.91-.91,2.39-.91,3.3,0l9.46,9.46c.68.68.87,1.65.51,2.54-.37.89-1.19,1.44-2.16,1.44ZM311.83,257.59l-9.46,9.46c-.55.55-.54,1.26-.35,1.73.2.48.69.98,1.47.98h18.92c.78,0,1.27-.51,1.47-.98.2-.48.21-1.18-.35-1.73l-9.46-9.46c-.62-.62-1.63-.62-2.25,0Z"/>
          </g>
          <g>
            <path class="cls-7" d="M311.97,251.45l-6.69,6.69c-.87.87-.26,2.37.98,2.37h13.38c1.24,0,1.86-1.5.98-2.37l-6.69-6.69c-.54-.54-1.42-.54-1.96,0Z"/>
            <path class="cls-7" d="M319.64,260.88h-13.38c-.72,0-1.35-.42-1.62-1.09s-.13-1.4.38-1.92l6.69-6.69c.69-.68,1.8-.68,2.49,0l6.69,6.69c.51.51.66,1.25.38,1.92s-.9,1.09-1.62,1.09ZM312.23,251.71l-6.69,6.69c-.35.35-.35.81-.22,1.11s.44.63.94.63h13.38c.5,0,.81-.32.94-.63s.13-.75-.22-1.11l-6.69-6.69c-.4-.4-1.04-.4-1.44,0h0Z"/>
          </g>
          <path class="cls-7" d="M312.95,293.99c-1.64,0-2.96-1.33-2.96-2.96v-14.28c0-1.64,1.33-2.96,2.96-2.96s2.96,1.33,2.96,2.96v14.28c0,1.64-1.33,2.96-2.96,2.96Z"/>
        </g>
        <path class="cls-7" d="M230.44,393.34c-43.51,0-84.42-16.94-115.19-47.71-30.77-30.77-47.71-71.68-47.71-115.19s16.94-84.42,47.71-115.19c30.77-30.77,71.68-47.71,115.19-47.71s84.42,16.94,115.19,47.71c30.77,30.77,47.71,71.68,47.71,115.19s-16.94,84.42-47.71,115.19c-30.77,30.77-71.68,47.71-115.19,47.71ZM230.44,73.46c-86.56,0-156.98,70.42-156.98,156.98s70.42,156.98,156.98,156.98,156.98-70.42,156.98-156.98-70.42-156.98-156.98-156.98Z"/>
        <path class="cls-7" d="M230.44,393.34c-43.51,0-84.42-16.94-115.19-47.71-30.77-30.77-47.71-71.68-47.71-115.19s16.94-84.42,47.71-115.19c30.77-30.77,71.68-47.71,115.19-47.71s84.42,16.94,115.19,47.71c30.77,30.77,47.71,71.68,47.71,115.19s-16.94,84.42-47.71,115.19c-30.77,30.77-71.68,47.71-115.19,47.71ZM230.44,73.46c-86.56,0-156.98,70.42-156.98,156.98s70.42,156.98,156.98,156.98,156.98-70.42,156.98-156.98-70.42-156.98-156.98-156.98Z"/>
        <g>
          <g>
            <path class="cls-7" d="M338.87,251.95l-9.46,9.46c-1.24,1.24-.36,3.35,1.39,3.35h18.92c1.75,0,2.62-2.11,1.39-3.35l-9.46-9.46c-.77-.77-2.01-.77-2.78,0Z"/>
            <path class="cls-7" d="M349.72,265.13h-18.92c-.96,0-1.79-.55-2.16-1.44-.37-.89-.17-1.86.51-2.54l9.46-9.46c.91-.91,2.39-.91,3.3,0l9.46,9.46c.68.68.87,1.65.51,2.54-.37.89-1.19,1.44-2.16,1.44ZM339.14,252.21l-9.46,9.46c-.55.55-.54,1.26-.35,1.73.2.48.69.98,1.47.98h18.92c.78,0,1.27-.51,1.47-.98.2-.48.21-1.18-.34-1.73l-9.46-9.46c-.62-.62-1.63-.62-2.25,0Z"/>
          </g>
          <g>
            <path class="cls-7" d="M338.87,242.49l-9.46,9.46c-1.24,1.24-.36,3.35,1.39,3.35h18.92c1.75,0,2.62-2.11,1.39-3.35l-9.46-9.46c-.77-.77-2.01-.77-2.78,0Z"/>
            <path class="cls-7" d="M349.72,255.67h-18.92c-.96,0-1.79-.55-2.16-1.44-.37-.89-.17-1.86.51-2.54l9.46-9.46c.91-.91,2.39-.91,3.3,0l9.46,9.46c.68.68.87,1.65.51,2.54-.37.89-1.19,1.44-2.16,1.44ZM339.14,242.75l-9.46,9.46c-.55.55-.54,1.26-.35,1.73.2.48.69.98,1.47.98h18.92c.78,0,1.27-.51,1.47-.98.2-.48.21-1.18-.34-1.73l-9.46-9.46c-.62-.62-1.63-.62-2.25,0Z"/>
          </g>
          <g>
            <path class="cls-7" d="M338.87,233.92l-9.46,9.46c-1.24,1.24-.36,3.35,1.39,3.35h18.92c1.75,0,2.62-2.11,1.39-3.35l-9.46-9.46c-.77-.77-2.01-.77-2.78,0Z"/>
            <path class="cls-7" d="M349.72,247.1h-18.92c-.96,0-1.79-.55-2.16-1.44-.37-.89-.17-1.86.51-2.54l9.46-9.46c.91-.91,2.39-.91,3.3,0l9.46,9.46c.68.68.87,1.65.51,2.54-.37.89-1.19,1.44-2.16,1.44ZM340.26,233.72c-.41,0-.82.16-1.13.47l-9.46,9.46c-.55.55-.54,1.26-.35,1.74.2.48.69.98,1.47.98h18.92c.78,0,1.27-.51,1.47-.98.2-.48.21-1.18-.34-1.74l-9.46-9.46c-.31-.31-.72-.47-1.13-.47Z"/>
          </g>
          <g>
            <path class="cls-7" d="M339.28,228.04l-6.69,6.69c-.87.87-.26,2.37.98,2.37h13.38c1.24,0,1.86-1.5.98-2.37l-6.69-6.69c-.54-.54-1.42-.54-1.96,0Z"/>
            <path class="cls-7" d="M346.95,237.47h-13.38c-.72,0-1.35-.42-1.62-1.09s-.13-1.4.38-1.92l6.69-6.69c.66-.66,1.82-.66,2.49,0l6.69,6.69c.51.51.66,1.25.38,1.92s-.9,1.09-1.62,1.09ZM340.26,228c-.27,0-.53.11-.72.3l-6.69,6.69c-.35.35-.35.81-.22,1.11.13.3.44.63.94.63h13.38c.5,0,.81-.32.94-.63.13-.3.13-.75-.22-1.11l-6.69-6.69c-.19-.19-.45-.3-.72-.3Z"/>
          </g>
          <path class="cls-7" d="M340.26,270.58c-1.64,0-2.96-1.33-2.96-2.96v-14.28c0-1.64,1.33-2.96,2.96-2.96s2.96,1.33,2.96,2.96v14.28c0,1.64-1.33,2.96-2.96,2.96Z"/>
        </g>
        <g>
          <g>
            <path class="cls-7" d="M372.85,229.64l-9.46,9.46c-1.24,1.24-.36,3.35,1.39,3.35h18.92c1.75,0,2.62-2.11,1.39-3.35l-9.46-9.46c-.77-.77-2.01-.77-2.78,0Z"/>
            <path class="cls-7" d="M383.69,242.82h-18.92c-.96,0-1.79-.55-2.16-1.44-.37-.89-.17-1.86.51-2.54l9.46-9.46c.91-.91,2.39-.91,3.3,0l9.46,9.46c.68.68.87,1.65.51,2.54-.37.89-1.19,1.44-2.16,1.44ZM374.23,229.44c-.41,0-.82.16-1.13.47l-9.46,9.46c-.55.55-.54,1.26-.35,1.74s.69.98,1.47.98h18.92c.78,0,1.27-.51,1.47-.98s.21-1.18-.35-1.74l-9.46-9.46c-.31-.31-.72-.47-1.13-.47Z"/>
          </g>
          <g>
            <path class="cls-7" d="M372.85,220.18l-9.46,9.46c-1.24,1.24-.36,3.35,1.39,3.35h18.92c1.75,0,2.62-2.11,1.39-3.35l-9.46-9.46c-.77-.77-2.01-.77-2.78,0Z"/>
            <path class="cls-7" d="M383.69,233.35h-18.92c-.96,0-1.79-.55-2.16-1.44-.37-.89-.17-1.86.51-2.54l9.46-9.46c.91-.91,2.39-.91,3.3,0l9.46,9.46c.68.68.87,1.65.51,2.54-.37.89-1.19,1.44-2.16,1.44ZM374.23,219.97c-.41,0-.82.16-1.13.47l-9.46,9.46c-.55.55-.54,1.26-.35,1.74s.69.98,1.47.98h18.92c.78,0,1.27-.51,1.47-.98s.21-1.18-.35-1.74l-9.46-9.46c-.31-.31-.72-.47-1.13-.47Z"/>
          </g>
          <g>
            <path class="cls-7" d="M372.85,211.61l-9.46,9.46c-1.24,1.24-.36,3.35,1.39,3.35h18.92c1.75,0,2.62-2.11,1.39-3.35l-9.46-9.46c-.77-.77-2.01-.77-2.78,0Z"/>
            <path class="cls-7" d="M383.69,224.79h-18.92c-.96,0-1.79-.55-2.16-1.44-.37-.89-.17-1.86.51-2.54l9.46-9.46c.91-.91,2.39-.91,3.3,0l9.46,9.46c.68.68.87,1.65.51,2.54-.37.89-1.19,1.44-2.16,1.44ZM374.23,211.4c-.41,0-.82.16-1.13.47l-9.46,9.46c-.55.55-.54,1.26-.35,1.74s.69.98,1.47.98h18.92c.78,0,1.27-.51,1.47-.98s.21-1.18-.35-1.74l-9.46-9.46c-.31-.31-.72-.47-1.13-.47Z"/>
          </g>
          <g>
            <path class="cls-7" d="M373.25,205.73l-6.69,6.69c-.87.87-.26,2.37.98,2.37h13.38c1.24,0,1.86-1.5.98-2.37l-6.69-6.69c-.54-.54-1.42-.54-1.96,0Z"/>
            <path class="cls-7" d="M380.92,215.16h-13.38c-.72,0-1.35-.42-1.62-1.09s-.13-1.4.38-1.92l6.69-6.69c.69-.68,1.8-.69,2.49,0l6.69,6.69c.51.51.66,1.25.38,1.92s-.9,1.09-1.62,1.09ZM373.51,205.99l-6.69,6.69c-.35.35-.35.81-.22,1.11s.44.63.94.63h13.38c.5,0,.81-.32.94-.63s.13-.75-.22-1.11l-6.69-6.69c-.4-.4-1.04-.4-1.44,0h0Z"/>
          </g>
          <path class="cls-7" d="M374.23,248.27c-1.64,0-2.96-1.33-2.96-2.96v-14.28c0-1.64,1.33-2.96,2.96-2.96s2.96,1.33,2.96,2.96v14.28c0,1.64-1.33,2.96-2.96,2.96Z"/>
        </g>
        <g>
          <path class="cls-8" d="M335.16,297.08c-11.57-11.57-30.32-11.57-41.89,0-11.57,11.57-30.32,11.57-41.89,0-11.57-11.57-30.32-11.57-41.89,0-11.57,11.57-30.32,11.57-41.89,0-11.57-11.57-30.32-11.57-41.89,0-10.91,10.91-28.2,11.52-39.83,1.87,25.66,54.05,80.74,91.43,144.56,91.43s118.89-37.38,144.56-91.43c-11.64,9.66-28.93,9.04-39.83-1.87Z"/>
          <path class="cls-7" d="M230.44,393.34c-31.42,0-61.91-8.96-88.19-25.92-25.59-16.51-46.01-39.75-59.04-67.2-.6-1.26-.24-2.76.86-3.61,1.1-.85,2.64-.83,3.71.06,10.64,8.84,26.06,8.11,35.85-1.68,6.15-6.15,14.34-9.54,23.04-9.54s16.89,3.39,23.04,9.54c10.39,10.39,27.31,10.39,37.7,0,6.15-6.15,14.34-9.54,23.04-9.54s16.88,3.39,23.04,9.54c10.39,10.39,27.31,10.39,37.7,0,6.15-6.15,14.34-9.54,23.04-9.54s16.88,3.39,23.04,9.54c9.79,9.79,25.2,10.52,35.85,1.68,1.07-.89,2.61-.91,3.71-.06,1.1.85,1.45,2.35.86,3.61-13.03,27.45-33.45,50.69-59.04,67.2-26.28,16.96-56.78,25.92-88.19,25.92ZM93.16,306.62c12.54,22.57,30.47,41.74,52.3,55.83,25.32,16.34,54.71,24.97,84.98,24.97s59.66-8.64,84.98-24.97c21.84-14.09,39.76-33.26,52.3-55.83-11.7,4.51-25.28,1.93-34.66-7.44-10.39-10.39-27.31-10.39-37.7,0-12.7,12.7-33.37,12.7-46.08,0-5.04-5.04-11.73-7.81-18.85-7.81s-13.81,2.77-18.85,7.81c-12.7,12.7-33.37,12.7-46.08,0-10.39-10.39-27.31-10.39-37.7,0-9.37,9.37-22.95,11.95-34.66,7.44Z"/>
        </g>
        <path class="cls-7" d="M188.55,335.36c-8.34,0-16.69-3.18-23.04-9.53-1.16-1.16-1.16-3.03,0-4.19,1.16-1.16,3.03-1.16,4.19,0,10.39,10.39,27.31,10.39,37.7,0,6.15-6.15,14.34-9.54,23.04-9.54s16.88,3.39,23.04,9.54c10.39,10.39,27.31,10.39,37.7,0,1.16-1.16,3.03-1.16,4.19,0,1.16,1.16,1.16,3.03,0,4.19-12.7,12.7-33.37,12.7-46.08,0-5.04-5.04-11.73-7.81-18.85-7.81s-13.81,2.77-18.85,7.81c-6.35,6.35-14.7,9.53-23.04,9.53Z"/>
        <g>
          <path class="cls-7" d="M188.57,386.1c-7.46,0-14.71-2.78-20.25-7.85l-1.57-1.44,1.97.83c7.36,3.09,15.04,5.65,22.83,7.6l2.07.52-2.13.21c-.97.09-1.95.14-2.92.14ZM170.62,379.21c5.26,4.08,11.78,6.23,18.45,6.14-6.27-1.67-12.46-3.73-18.45-6.14Z"/>
          <path class="cls-7" d="M272.31,386.1c-.97,0-1.94-.05-2.92-.14l-2.13-.21,2.07-.52c7.79-1.95,15.47-4.51,22.83-7.6l1.97-.83-1.57,1.44c-5.54,5.07-12.79,7.85-20.25,7.85ZM271.81,385.35c6.67.09,13.19-2.06,18.45-6.14-5.99,2.41-12.18,4.47-18.45,6.14Z"/>
        </g>
        <g>
          <g>
            <g>
              <path class="cls-7" d="M144.58,310.86h-9.14c-4.25,0-6.38,5.14-3.37,8.14l9.14,9.14c3,3,8.14.88,8.14-3.37v-9.14c0-2.63-2.14-4.77-4.77-4.77Z"/>
              <path class="cls-7" d="M144.55,329.92c-1.32,0-2.61-.52-3.6-1.52l-9.14-9.14c-1.5-1.5-1.92-3.64-1.11-5.6.81-1.96,2.63-3.17,4.75-3.17h9.14c2.83,0,5.14,2.31,5.14,5.14v9.14c0,2.12-1.22,3.94-3.17,4.75-.66.27-1.33.4-2,.4ZM135.44,311.23c-1.81,0-3.37,1.04-4.06,2.72s-.33,3.51.95,4.79l9.14,9.14c1.28,1.28,3.12,1.65,4.79.95,1.68-.69,2.72-2.25,2.72-4.06v-9.14c0-2.43-1.97-4.4-4.4-4.4h-9.14Z"/>
            </g>
            <g>
              <path class="cls-4" d="M276.26,195.98c-3.83,0-7.48-1.89-9.76-5.05-2.28-3.16-2.88-7.11-1.63-10.84l.03-.09,16.85-41.69c.59-1.73,1.59-3.33,2.88-4.62l41.61-41.61c2.28-2.28,5.31-3.53,8.53-3.53s6.25,1.25,8.53,3.53l24.83,24.83c2.28,2.28,3.53,5.31,3.53,8.53s-1.25,6.25-3.53,8.53l-41.61,41.61c-1.3,1.29-2.89,2.29-4.62,2.88l-41.69,16.85-.09.03c-1.26.42-2.56.63-3.86.63h0Z"/>
              <path class="cls-7" d="M334.76,91.52c2.33,0,4.66.89,6.43,2.66l24.83,24.83c3.55,3.55,3.55,9.31,0,12.87l-41.61,41.61c-1,1-2.22,1.75-3.56,2.2l-41.68,16.85c-.99.33-1.97.48-2.92.48-5.89,0-10.63-5.87-8.59-11.99l16.85-41.68c.45-1.34,1.2-2.56,2.2-3.56l41.61-41.61c1.78-1.78,4.1-2.66,6.43-2.66M334.76,85.6c-4.01,0-7.78,1.56-10.62,4.4l-41.61,41.61c-1.59,1.59-2.82,3.55-3.56,5.67l-16.79,41.53-.07.17-.06.18c-1.55,4.64-.8,9.56,2.04,13.51,2.83,3.93,7.38,6.28,12.16,6.28,1.62,0,3.23-.26,4.8-.79l.18-.06.17-.07,41.53-16.79c2.12-.74,4.08-1.97,5.67-3.56l41.61-41.61c5.86-5.86,5.86-15.39,0-21.24l-24.83-24.83c-2.84-2.84-6.61-4.4-10.62-4.4h0Z"/>
            </g>
            <path class="cls-7" d="M144.25,318.93c-.76,0-1.52-.29-2.09-.87-1.16-1.16-1.16-3.03,0-4.19l164.52-164.52c1.16-1.16,3.03-1.16,4.19,0,1.16,1.16,1.16,3.03,0,4.19l-164.52,164.52c-.58.58-1.34.87-2.09.87Z"/>
          </g>
          <g>
            <g>
              <path class="cls-7" d="M316.3,310.86h9.14c4.25,0,6.38,5.14,3.37,8.14l-9.14,9.14c-3,3-8.14.88-8.14-3.37v-9.14c0-2.63,2.14-4.77,4.77-4.77Z"/>
              <path class="cls-7" d="M316.34,329.92c-.67,0-1.34-.13-2-.4-1.96-.81-3.17-2.63-3.17-4.75v-9.14c0-2.83,2.31-5.14,5.14-5.14h9.14c2.12,0,3.94,1.22,4.75,3.17s.38,4.1-1.11,5.6l-9.14,9.14c-1,1-2.28,1.52-3.6,1.52ZM316.3,311.23c-2.43,0-4.4,1.97-4.4,4.4v9.14c0,1.81,1.04,3.37,2.72,4.06,1.67.69,3.51.33,4.79-.95l9.14-9.14c1.28-1.28,1.65-3.12.95-4.79-.69-1.68-2.25-2.72-4.06-2.72h-9.14Z"/>
            </g>
            <g>
              <path class="cls-4" d="M184.63,195.98c-1.3,0-2.6-.21-3.86-.63l-.09-.03-41.69-16.85c-1.73-.59-3.33-1.59-4.62-2.88l-41.61-41.61c-2.28-2.28-3.53-5.31-3.53-8.53s1.25-6.25,3.53-8.53l24.83-24.83c2.28-2.28,5.31-3.53,8.53-3.53s6.25,1.25,8.53,3.53l41.61,41.61c1.29,1.29,2.29,2.89,2.88,4.62l16.85,41.69.03.09c1.24,3.72.65,7.67-1.63,10.84-2.28,3.16-5.93,5.05-9.76,5.05Z"/>
              <path class="cls-7" d="M126.12,91.52c2.33,0,4.66.89,6.43,2.66l41.61,41.61c1,1,1.75,2.22,2.2,3.56l16.85,41.68c2.04,6.12-2.69,11.99-8.59,11.99-.95,0-1.93-.15-2.92-.48l-41.68-16.85c-1.34-.45-2.56-1.2-3.56-2.2l-41.61-41.61c-3.55-3.55-3.55-9.31,0-12.87l24.83-24.83c1.78-1.78,4.1-2.66,6.43-2.66M126.12,85.6c-4.01,0-7.78,1.56-10.62,4.4l-24.83,24.83c-2.84,2.84-4.4,6.61-4.4,10.62s1.56,7.78,4.4,10.62l41.61,41.61c1.59,1.59,3.55,2.82,5.67,3.56l41.53,16.79.17.07.18.06c1.57.52,3.18.79,4.8.79,4.78,0,9.33-2.35,12.16-6.28,2.84-3.95,3.59-8.87,2.04-13.51l-.06-.18-.07-.17-16.79-41.53c-.74-2.12-1.97-4.08-3.56-5.67l-41.61-41.61c-2.84-2.84-6.61-4.4-10.62-4.4h0Z"/>
            </g>
            <path class="cls-7" d="M316.64,318.93c-.76,0-1.52-.29-2.09-.87l-164.52-164.52c-1.16-1.16-1.16-3.03,0-4.19,1.16-1.16,3.03-1.16,4.19,0l164.52,164.52c1.16,1.16,1.16,3.03,0,4.19-.58.58-1.34.87-2.09.87Z"/>
          </g>
        </g>
        <g>
          <path class="cls-7" d="M250.54,125.73h-40.2c-1.64,0-2.96-1.33-2.96-2.96s1.33-2.96,2.96-2.96h40.2c1.64,0,2.96,1.33,2.96,2.96s-1.33,2.96-2.96,2.96Z"/>
          <path class="cls-7" d="M250.54,152.39h-40.2c-1.64,0-2.96-1.33-2.96-2.96s1.33-2.96,2.96-2.96h40.2c1.64,0,2.96,1.33,2.96,2.96s-1.33,2.96-2.96,2.96Z"/>
          <path class="cls-7" d="M240.49,139.06h-20.1c-1.64,0-2.96-1.33-2.96-2.96s1.33-2.96,2.96-2.96h20.1c1.64,0,2.96,1.33,2.96,2.96s-1.33,2.96-2.96,2.96Z"/>
        </g>
        <g>
          <g>
            <path class="cls-7" d="M137.2,261.07c-1.64,0-2.96-1.33-2.96-2.96,0-6.03-6.46-6.5-8.44-6.5-1.64,0-2.96-1.33-2.96-2.96s1.33-2.96,2.96-2.96c8.59,0,14.36,4.99,14.36,12.42,0,1.64-1.33,2.96-2.96,2.96Z"/>
            <path class="cls-7" d="M136.61,261.07c-1.64,0-2.96-1.33-2.96-2.96,0-7.43,5.77-12.42,14.36-12.42,1.64,0,2.96,1.33,2.96,2.96s-1.33,2.96-2.96,2.96c-1.98,0-8.44.47-8.44,6.5,0,1.64-1.33,2.96-2.96,2.96Z"/>
          </g>
          <g>
            <path class="cls-7" d="M161.44,231.3c-1.64,0-2.96-1.33-2.96-2.96,0-6.03-6.46-6.5-8.44-6.5-1.64,0-2.96-1.33-2.96-2.96s1.33-2.96,2.96-2.96c8.59,0,14.36,4.99,14.36,12.42,0,1.64-1.33,2.96-2.96,2.96Z"/>
            <path class="cls-7" d="M160.85,231.3c-1.64,0-2.96-1.33-2.96-2.96,0-7.43,5.77-12.42,14.36-12.42,1.64,0,2.96,1.33,2.96,2.96s-1.33,2.96-2.96,2.96c-1.98,0-8.44.47-8.44,6.5,0,1.64-1.33,2.96-2.96,2.96Z"/>
          </g>
          <g>
            <path class="cls-7" d="M112.57,231.3c-1.64,0-2.96-1.33-2.96-2.96,0-6.03-6.46-6.5-8.44-6.5-1.64,0-2.96-1.33-2.96-2.96s1.33-2.96,2.96-2.96c8.59,0,14.36,4.99,14.36,12.42,0,1.64-1.33,2.96-2.96,2.96Z"/>
            <path class="cls-7" d="M111.98,231.3c-1.64,0-2.96-1.33-2.96-2.96,0-7.43,5.77-12.42,14.36-12.42,1.64,0,2.96,1.33,2.96,2.96s-1.33,2.96-2.96,2.96c-1.98,0-8.44.47-8.44,6.5,0,1.64-1.33,2.96-2.96,2.96Z"/>
          </g>
        </g>
        <g>
          <path class="cls-3" d="M380.7,246.45c-3.58-3.58-9.38-3.58-12.95,0l-16.84,16.84h-8.72c-1.89.05-3.76.8-5.21,2.24l-13.44,13.44-2.62-2.62c-1.79-1.79-4.69-1.79-6.48,0l-18.82,18.63c11.63-9.4,28.72-8.69,39.53,2.12,10.9,10.9,28.19,11.52,39.82,1.87,6.59-13.89,11.25-28.87,13.61-44.61l-7.9-7.9Z"/>
          <path class="cls-7" d="M356.1,308.78c-8.35,0-16.66-3.23-23.03-9.6-9.66-9.66-24.96-10.48-35.57-1.91-1.23.99-3.02.85-4.07-.33-1.05-1.18-1-2.97.12-4.08l18.82-18.63c2.93-2.93,7.71-2.93,10.65.01l.53.53,11.34-11.34c1.93-1.93,4.49-3.03,7.22-3.11.03,0,.05,0,.08,0h7.49l15.97-15.97c2.29-2.29,5.33-3.55,8.57-3.55s6.28,1.26,8.57,3.55l7.9,7.9c.66.66.97,1.6.83,2.53-2.36,15.74-7.03,31.03-13.87,45.44-.19.39-.45.73-.78,1.01-6.08,5.05-13.44,7.54-20.78,7.54ZM314.21,285.42c8.37,0,16.7,3.23,23.05,9.57,9.64,9.64,24.72,10.49,35.34,2.09,6.22-13.25,10.54-27.27,12.85-41.7l-6.83-6.83h0c-1.17-1.17-2.73-1.82-4.38-1.82s-3.21.64-4.38,1.82l-16.84,16.84c-.56.56-1.31.87-2.09.87h-8.67c-1.19.04-2.31.53-3.16,1.37l-13.43,13.43c-1.16,1.16-3.03,1.16-4.19,0l-2.62-2.62c-.63-.63-1.66-.63-2.29,0l-7.47,7.39c1.7-.27,3.42-.41,5.13-.41Z"/>
        </g>
        <g>
          <line class="cls-3" x1="357.06" y1="257.1" x2="340.22" y2="273.94"/>
          <path class="cls-7" d="M340.22,276.9c-.76,0-1.52-.29-2.09-.87-1.16-1.16-1.16-3.03,0-4.19l16.84-16.84c1.16-1.16,3.03-1.16,4.19,0,1.16,1.16,1.16,3.03,0,4.19l-16.84,16.84c-.58.58-1.34.87-2.09.87Z"/>
        </g>
        <g>
          <path class="cls-2" d="M293.27,350.4c-11.57,11.57-30.32,11.57-41.89,0-11.57-11.57-30.32-11.57-41.89,0-11.57,11.57-30.32,11.57-41.89,0-11.57-11.57-30.32-11.57-41.89,0l-.5.5c28.12,24.59,64.93,39.49,105.22,39.49s77.1-14.9,105.22-39.49l-.5-.5c-11.57-11.57-30.32-11.57-41.89,0Z"/>
          <path class="cls-7" d="M230.44,393.34c-39.44,0-77.5-14.28-107.17-40.22l-2.39-2.09,2.74-2.73c12.7-12.7,33.37-12.7,46.08,0,10.39,10.39,27.31,10.39,37.7,0,6.15-6.15,14.34-9.54,23.04-9.54s16.88,3.39,23.04,9.54c10.39,10.39,27.31,10.39,37.7,0,12.7-12.7,33.37-12.7,46.08,0l2.74,2.73-2.39,2.09c-29.67,25.94-67.73,40.22-107.17,40.22ZM129.67,350.8c28.21,23.64,63.86,36.62,100.77,36.62s72.56-12.98,100.77-36.62c-4.77-3.96-10.72-6.12-16.99-6.12-7.12,0-13.81,2.77-18.85,7.81h0c-12.7,12.7-33.37,12.7-46.08,0-5.04-5.04-11.73-7.81-18.85-7.81s-13.81,2.77-18.85,7.81c-12.7,12.7-33.37,12.7-46.08,0-9.8-9.8-25.38-10.36-35.84-1.69Z"/>
        </g>
        <g>
          <path class="cls-7" d="M209.5,377.05c-5.05,5.05-11.46,7.89-18.04,8.53,12.48,3.13,25.54,4.8,38.99,4.8s26.51-1.67,38.99-4.8c-6.59-.64-13-3.49-18.04-8.53-11.57-11.57-30.32-11.57-41.89,0Z"/>
          <path class="cls-7" d="M230.44,393.34c-13.41,0-26.77-1.64-39.71-4.88-1.4-.35-2.34-1.66-2.23-3.09.11-1.44,1.23-2.59,2.67-2.73,6.12-.6,11.89-3.33,16.24-7.68,6.15-6.15,14.34-9.54,23.04-9.54s16.88,3.39,23.04,9.54c4.35,4.35,10.12,7.08,16.24,7.68,1.43.14,2.56,1.29,2.67,2.73.11,1.44-.84,2.74-2.23,3.09-12.94,3.24-26.3,4.88-39.71,4.88ZM203.42,385.09c17.8,3.09,36.24,3.09,54.04,0-3-1.54-5.76-3.54-8.17-5.95-5.04-5.04-11.73-7.81-18.85-7.81s-13.81,2.77-18.85,7.81h0c-2.41,2.41-5.17,4.41-8.17,5.95Z"/>
        </g>
        <path class="cls-7" d="M356.1,308.78c-8.35,0-16.66-3.23-23.03-9.6-10.39-10.39-27.31-10.39-37.7,0-12.7,12.7-33.37,12.7-46.08,0-5.04-5.04-11.73-7.81-18.85-7.81s-13.81,2.77-18.85,7.81c-12.7,12.7-33.37,12.7-46.08,0-5.04-5.04-11.73-7.81-18.85-7.81s-13.81,2.77-18.85,7.81c-11.97,11.97-30.81,12.85-43.82,2.05-1.26-1.04-1.43-2.91-.39-4.17s2.91-1.43,4.17-.39c10.64,8.84,26.06,8.11,35.85-1.68,12.7-12.7,33.37-12.7,46.08,0,10.39,10.39,27.31,10.39,37.7,0,6.15-6.15,14.34-9.54,23.04-9.54s16.88,3.39,23.04,9.54c10.39,10.39,27.31,10.39,37.7,0,12.7-12.7,33.37-12.7,46.08,0,9.79,9.79,25.2,10.52,35.85,1.68,1.26-1.04,3.13-.87,4.17.39,1.04,1.26.87,3.13-.39,4.17-6.09,5.05-13.45,7.55-20.79,7.55Z"/>
      </g>
      <g>
        <path class="cls-6" d="M166.77,417.39c.06.3-.23.55-.52.45l-2.24-.81c-.27-.1-.46-.33-.52-.6l-.3-1.54s-.03-.01-.05-.02l-.33-.12-.32.88c-.15.41-.61.63-1.02.48l-1.35-.49c-.42-.15-.63-.61-.48-1.02l2.77-7.63c.15-.41.61-.63,1.02-.48l2.26.82c2.46.89,3.67,3.1,2.89,5.25l-.05.13c-.35.97-1.04,1.7-1.92,2.11-.18.09-.3.28-.26.48l.42,2.12ZM165.81,411.76c.28-.51.04-1.12-.48-1.31l-.49-.18c-.21-.08-.43.03-.51.24l-.35.97c-.08.21.03.43.24.51l.44.16c.43.16.93,0,1.15-.39Z"/>
        <path class="cls-6" d="M184.35,422.47c.09.3-.18.57-.48.5l-2.31-.6c-.27-.07-.49-.28-.57-.55l-.44-1.5s-.03,0-.05-.01l-.34-.09-.24.91c-.11.43-.55.68-.97.57l-1.39-.36c-.43-.11-.68-.55-.57-.97l2.04-7.85c.11-.43.55-.68.97-.57l2.32.6c2.53.66,3.95,2.74,3.37,4.95l-.04.13c-.26,1-.88,1.79-1.71,2.27-.18.1-.27.3-.21.5l.61,2.08ZM182.87,416.95c.23-.53-.07-1.12-.6-1.26l-.5-.13c-.21-.05-.43.07-.48.28l-.26,1c-.06.21.07.43.28.48l.45.12c.44.12.93-.08,1.11-.5Z"/>
        <path class="cls-6" d="M202.26,426.49l-2.39-.39c-.24-.04-.43-.22-.48-.46l-.37-1.84c-.04-.19-.19-.33-.38-.36l-1.13-.18c-.19-.03-.38.06-.47.22l-.92,1.62c-.12.21-.36.33-.6.29l-1.21-.2c-.4-.06-.61-.51-.41-.86l3.86-6.79.64-1.13c.12-.21.36-.32.6-.29l1.63.27c.24.04.43.22.47.46l1.79,8.95c.08.4-.26.75-.66.69ZM197.9,422.01c.04.05.09.09.16.11h0s.47.08.47.08h0c.07,0,.13-.02.18-.05l-.21-1.04s-.02,0-.03-.01c-.01,0-.03,0-.04,0l-.52.92Z"/>
        <path class="cls-6" d="M221.48,422.51v.14c-.16,2.21-2.12,3.76-4.57,3.6l-.35-.02-.07,1.09c-.02.35-.33.62-.68.6l-1.74-.12c-.35-.02-.62-.33-.6-.68l.56-8.4c.02-.35.33-.62.68-.6l2.55.17c2.61.17,4.39,1.95,4.24,4.23ZM218.61,422.51c.13-.56-.27-1.09-.83-1.12l-.58-.04c-.18-.01-.34.13-.36.31l-.08,1.15c-.01.18.13.34.31.36l.53.03c.45.03.89-.25,1-.69Z"/>
        <path class="cls-6" d="M238.83,425.22c0,.1-.01.2-.03.3,0,.05-.01.1-.03.15v.07s-.03.07-.03.07c-.02.09-.05.18-.08.26-.01.04-.03.09-.05.13l-.05.13c-.04.09-.07.17-.12.26-.05.08-.09.17-.14.25-.21.32-.47.6-.76.82-.29.22-.59.39-.89.52-.3.13-.6.22-.9.28-.3.06-.59.1-.89.12-.3.01-.58.01-.86,0-.28-.02-.56-.05-.83-.1-.62-.11-1.2-.27-1.76-.47-.27-.1-.42-.38-.35-.66l.37-1.6c.08-.33.42-.52.73-.4.12.04.25.09.37.12.1.03.19.06.29.09.1.02.19.05.29.08.19.05.38.09.56.12.19.03.37.05.54.06.18.01.35,0,.51,0,.16-.01.32-.03.47-.06.14-.03.28-.07.39-.12.02,0,.03-.02.05-.02.17-.11.28-.28.28-.45,0-.18-.12-.32-.33-.38-.02,0-.03,0-.05-.01-.07-.02-.16-.03-.25-.04-.18-.03-.39-.04-.63-.07-.24-.02-.51-.05-.8-.1-.3-.05-.63-.13-.98-.27-.17-.07-.36-.16-.54-.27-.09-.06-.18-.12-.27-.19-.04-.04-.09-.07-.13-.11-.05-.04-.09-.08-.13-.13-.35-.35-.61-.81-.72-1.3-.12-.48-.09-.98.04-1.42.12-.43.35-.84.63-1.16.28-.33.61-.57.93-.75.33-.18.66-.31,1-.39.35-.08.64-.12.95-.14.62-.04,1.2.03,1.72.13.26.05.51.1.75.16l.33.08.22.05c.19.04.31.21.28.4h0l-.3,1.77c-.04.19-.21.31-.4.28l-.31-.06-.34-.07c-.22-.04-.43-.08-.64-.12-.41-.06-.79-.09-1.13-.06-.17.01-.35.04-.48.08-.14.04-.27.09-.37.16,0,0-.02.01-.03.02-.14.11-.21.24-.21.36,0,.1.06.18.17.23.11.04.25.07.42.1.35.05.8.06,1.35.13.14.02.28.04.42.07.15.03.31.07.46.11.15.05.31.1.47.17.16.07.31.15.47.25.16.1.31.22.46.35.15.13.29.29.41.47.12.17.22.37.3.56.08.2.13.4.16.6s.04.4.03.6Z"/>
        <path class="cls-6" d="M249.34,426.5c-.07-.73.46-1.38,1.19-1.45.73-.07,1.38.46,1.45,1.19.07.73-.46,1.38-1.19,1.45-.73.07-1.38-.46-1.45-1.19Z"/>
        <path class="cls-6" d="M272.41,419.07c.24,1.26-.04,2.56-.79,3.67-.14.2-.29.39-.46.58-.55.6-1.23,1.08-1.99,1.4-.35.14-.71.25-1.08.33,0,0,0,0,0,0-.03,0-.06.01-.09.02-.03,0-.06.01-.09.02,0,0,0,0,0,0-.37.06-.75.09-1.12.09-.83-.01-1.64-.21-2.37-.56-.22-.11-.43-.23-.64-.37-1.11-.75-1.85-1.85-2.09-3.11-.36-1.87.47-3.72,1.98-4.88.69-.53,1.51-.92,2.44-1.11.93-.17,1.84-.11,2.67.13,1.83.53,3.28,1.94,3.64,3.81ZM269,419.74c-.18-.95-1.14-1.57-2.28-1.35-1.14.22-1.8,1.15-1.62,2.1.18.95,1.14,1.57,2.28,1.35,1.14-.22,1.8-1.15,1.62-2.1Z"/>
        <path class="cls-6" d="M290.84,418.47c.23.21.14.58-.15.67l-2.28.68c-.27.08-.57.01-.77-.18l-1.16-1.06s-.03.01-.05.02l-.34.1.27.9c.13.42-.11.87-.54.99l-1.38.41c-.42.13-.87-.11-.99-.54l-2.33-7.77c-.13-.42.11-.87.54-.99l2.3-.69c2.5-.75,4.79.29,5.45,2.48l.04.13c.3.99.17,1.98-.28,2.83-.1.18-.07.4.08.54l1.6,1.46ZM286.72,414.52c-.07-.58-.64-.92-1.17-.76l-.49.15c-.21.06-.33.28-.27.49l.3.99c.06.21.28.33.49.27l.45-.13c.44-.13.75-.55.69-1Z"/>
        <path class="cls-6" d="M307.32,408.06l1.18,2.9c.16.39.07.85-.25,1.14-.67.63-1.48,1.23-2.39,1.62-.04.02-.08.03-.12.05-1.41.57-2.99.58-4.34.03-1.25-.51-2.2-1.45-2.68-2.64-1.05-2.58.44-5.63,3.31-6.8.6-.24,1.29-.42,2.03-.52.3-.04.58.18.62.49l.29,2.13c.04.31-.18.59-.49.64-.46.06-.88.17-1.22.3-1.18.48-1.87,1.64-1.51,2.53.15.37.46.66.89.84.58.24,1.27.22,1.9-.05.23-.1.34-.35.27-.59l-.37-.9c-.11-.27.02-.58.29-.7l1.89-.77c.27-.11.58.02.7.29Z"/>
      </g>
      <g>
        <path class="cls-6" d="M104.24,366.68l-.15.15c-.98-.4-1.81-.21-2.79.76l-6.38,6.33c-.86.86-1.2,1.72-.78,2.78l-.15.15-6.44-6.48c-2.86-2.88-2.84-5.9-.89-7.83,1.7-1.69,4.32-1.71,6.28.27.09.09.19.19.28.31-.21-1.04-.42-1.97-1.08-2.64-.55-.56-1.21-.34-1.21-.34-.22-.63-.3-1.62.52-2.43,1.16-1.15,2.88-1.4,4.46.19,2.41,2.43-.58,6.53.68,8.56l1.8-1.79c.98-.97,1.17-1.8.78-2.78l.15-.15,4.91,4.95ZM92.43,370.59l2.34-2.32-2.48-2.5c-.9-.91-1.89-1.12-2.64-.38-.82.81-.6,1.79.3,2.7l2.48,2.5Z"/>
        <path class="cls-6" d="M81.04,340.51l-.17.12c-.73-.43-2.07-.28-3.13,1.16l3.17,4.22c1.68-.62,2.19-1.85,1.99-2.68l.17-.12,3.98,5.31-.17.12c-.56-.17-1.15-.12-2.59.26-1.65.44-6.89,2.29-8.6,2.87-2.24.75-2.38,1.88-2.14,2.48l-.16.12-6.04-8.05.17-.12c.5.4,1.62.59,2.98-1.36,1.04-1.47,4.42-6.31,5.16-7.45.83-1.3.96-2.01.98-2.41l.17-.12,4.23,5.64ZM73.07,348.4l.2.26,4.83-1.67-2.07-2.75-2.96,4.16Z"/>
        <path class="cls-6" d="M71.75,326.94l-.18.1c-.83-.65-1.68-.69-2.89-.02l-7.86,4.36c-1.21.67-1.62,1.42-1.51,2.46l-.18.1-4.23-7.62c-2.07-3.73-.91-6.57,1.61-7.97,2.52-1.4,5.33-.34,7.11,2.87l1.65,2.97,1.41-.78c1.21-.67,1.62-1.42,1.51-2.46l.18-.1,3.38,6.09ZM60.88,323.07c-.62-1.12-1.51-1.57-2.48-1.03-1.04.58-1.2,1.61-.58,2.73l1.51,2.72,3.06-1.7-1.51-2.72Z"/>
        <path class="cls-6" d="M60.23,304.79l-.19.08c-.74-.75-1.57-.91-2.86-.41l-8.38,3.27c-1.29.5-1.79,1.19-1.83,2.24l-.19.08-3.17-8.13c-1.55-3.98-.02-6.63,2.67-7.68s5.33.38,6.66,3.8l1.24,3.17,1.5-.58c1.29-.5,1.79-1.19,1.83-2.24l.19-.08,2.53,6.49ZM49.97,299.5c-.46-1.19-1.28-1.76-2.32-1.35-1.11.43-1.41,1.43-.95,2.63l1.13,2.9,3.27-1.27-1.13-2.9Z"/>
        <path class="cls-6" d="M49.83,273.17l-.2.05c-.51-.68-1.79-1.07-3.33-.16l1.25,5.13c1.79.09,2.75-.84,2.88-1.68l.2-.05,1.58,6.45-.2.05c-.45-.38-1.01-.56-2.48-.77-1.69-.24-7.24-.61-9.04-.74-2.36-.19-2.93.8-2.94,1.44l-.2.05-2.39-9.78.2-.05c.31.56,1.26,1.18,3.27-.08,1.53-.95,6.54-4.06,7.67-4.83,1.27-.86,1.68-1.47,1.84-1.83l.2-.05,1.67,6.85ZM39.39,277.3l.08.32,5.1.37-.82-3.35-4.36,2.66Z"/>
        <path class="cls-6" d="M45.65,247.39l-.21.02c-.5-.92-1.33-1.3-2.64-1.17l-2.91.29.55,5.56,2.91-.29c1.27-.12,2.04-.76,2.36-1.68l.21-.02.68,6.98-.21.02c-.5-.84-1.37-1.32-2.64-1.19l-8.93.88c-1.52.15-2.17.9-2.38,1.68l-.21.02-.68-6.98.21-.02c.34.75,1.15,1.34,2.67,1.19l2.73-.27-.54-5.56-2.73.27c-1.44.12-2.16.63-2.38,1.66l-.21.02-.68-6.96.21-.02c.44.91,1.25,1.31,2.66,1.17l8.93-.88c1.35-.13,2.06-.58,2.36-1.66l.21-.02.68,6.96Z"/>
        <path class="cls-6" d="M45.12,221h-.21c-.3-.8-1.42-1.53-3.15-1.09l-.22,5.27c1.69.59,2.87-.04,3.23-.81h.21s-.28,6.64-.28,6.64h-.21c-.33-.5-.81-.83-2.17-1.44-1.56-.71-6.78-2.6-8.47-3.23-2.21-.84-3.03-.04-3.22.57h-.21s.42-10.06.42-10.06h.21c.14.63.89,1.49,3.16.84,1.73-.48,7.41-2.08,8.71-2.5,1.46-.47,2.02-.95,2.28-1.25h.21s-.3,7.05-.3,7.05ZM33.96,222.06v.33s4.78,1.77,4.78,1.77l.15-3.44-4.93,1.34Z"/>
        <path class="cls-6" d="M48.28,194.93l-.2-.04c-.12-.84-.59-1.56-1.4-1.71-1.76-.33-4.29,1.11-8.38,4.27l6.53,1.21c1.36.25,2.15-.06,2.73-.94l.2.04-1.27,6.85-.2-.04c-.23-1.03-.85-1.61-2.21-1.86l-8.83-1.64c-1.36-.25-2.15.06-2.73.94l-.2-.04,1.03-5.45,6.84-4.56-3.14-.58c-1.36-.25-2.15.06-2.73.94l-.2-.04,1.27-6.85.2.04c.23,1.03.85,1.61,2.21,1.86l8.83,1.64c1.36.25,2.15-.06,2.73-.94l.2.04-1.27,6.85Z"/>
        <path class="cls-6" d="M55.28,169.06l-.19-.07c0-.85-.36-1.63-1.14-1.89-1.7-.58-4.41.48-8.92,3.01l6.28,2.15c1.31.45,2.14.25,2.84-.53l.19.07-2.25,6.6-.2-.07c-.08-1.05-.61-1.71-1.92-2.16l-8.51-2.91c-1.31-.45-2.14-.25-2.84.53l-.2-.07,1.81-5.24,7.44-3.52-3.03-1.03c-1.31-.45-2.14-.25-2.84.53l-.2-.07,2.25-6.6.2.07c.08,1.05.61,1.71,1.92,2.16l8.51,2.91c1.31.45,2.14.25,2.84-.53l.2.07-2.25,6.6Z"/>
        <path class="cls-6" d="M65.51,146.11c-1.92,3.74-6.15,5.86-10.37,3.69-4.4-2.26-4.99-6.84-3.08-10.58,1.93-3.76,6-5.96,10.4-3.7,4.22,2.16,4.97,6.83,3.05,10.59ZM60.59,139.19c-2.4-1.23-4.58-.42-5.58,1.54-1,1.94-.38,4.18,2.02,5.41,2.38,1.22,4.56.41,5.55-1.53,1.01-1.96.39-4.2-1.99-5.42Z"/>
        <path class="cls-6" d="M74.11,113.48c-1.57.33-3.09,1.13-4.32,2.89-1.54,2.19-1.22,4.43.89,5.91,1.92,1.35,4.39,1.24,6-1.05,1.49-2.13.81-3.92-.59-4.9.6-.86,1.8-1.35,2.97-.54,1.84,1.29,2.61,4.17.11,7.74-2.71,3.86-7.42,4.54-10.88,2.11-3.85-2.7-3.84-7.41-1.26-11.09,1.04-1.49,2.23-2.21,2.65-2.8.28-.4.38-.76.38-1.01l4.16,2.51-.11.23Z"/>
        <path class="cls-6" d="M88.91,110.2l-.15-.14c.35-.99.13-1.81-.88-2.75l-6.6-6.1c-1.01-.94-1.85-1.09-2.81-.66l-.15-.14,4.73-5.12.15.14c-.35.99-.13,1.81.88,2.75l2.06,1.9.6-.65c.49-.53.49-1.01.31-1.85l-.45-2.13c-.34-1.55-1.11-1.9-1.92-1.63l-.15-.14,4.74-5.13.15.14c-.22.81-.14,1.73.27,3.42l1.01,4.22c.14.61.24,1.17.13,1.72,1.6,0,3.21.41,4.04-.48.45-.48.34-.98.29-1.22.54-.25,1.53-.47,2.42.36,1.45,1.34,1.36,3.08,0,4.55-2.55,2.75-7.13-.64-9.27.83l2.38,2.2c1.01.94,1.85,1.09,2.81.66l.15.14-4.73,5.12Z"/>
        <path class="cls-6" d="M117.51,83l-.12-.17c.56-.89.51-1.75-.28-2.88l-5.17-7.35c-.7-1-1.49-1.47-2.61-1.24l-.12-.17,7.47-5.25c3.32-2.33,6.29-1.8,7.87.44,1.38,1.96.95,4.55-1.32,6.15-.1.07-.22.15-.35.22,1.06-.04,2.01-.08,2.79-.62.64-.45.54-1.13.54-1.13.66-.11,1.65-.02,2.31.92.94,1.33.9,3.07-.94,4.36-2.8,1.97-6.34-1.67-8.55-.77l1.46,2.07c.79,1.13,1.58,1.46,2.61,1.24l.12.17-5.7,4.01ZM115.64,70.71l1.9,2.7,2.88-2.03c1.04-.74,1.42-1.68.81-2.54-.66-.94-1.66-.9-2.71-.16l-2.88,2.03Z"/>
        <path class="cls-6" d="M139.33,68.73l-.1-.18c.66-.82.71-1.67.06-2.89l-4.27-7.91c-.66-1.22-1.4-1.63-2.45-1.54l-.1-.18,6.13-3.31.1.18c-.66.82-.71,1.67-.06,2.89l4.27,7.91c.66,1.22,1.4,1.63,2.45,1.54l.1.18-6.13,3.31Z"/>
        <path class="cls-6" d="M158.99,59.13l-.08-.19c.17-.29.2-.83-.51-1.6l-7.96-7.67c-.8-.77-1.44-1.31-2.09-1.61l-.08-.19,6.68-2.67.08.19c-.5.73-.51,2.16.66,3.49l4.09,4.62-.07-6.23c-.02-1.77-1.02-2.81-1.93-2.98l-.08-.19,6.2-2.48.08.19c-.31.88-.35,1.78-.44,3.24l-.58,10.31c-.02,1.16.38,1.56.73,1.66l.08.19-4.8,1.92Z"/>
        <path class="cls-6" d="M177.99,52.28l-.05-.2c.81-.5,1.09-1.49.76-2.79l-2.22-8.69c-.34-1.34-.98-2.03-2-2.11l-.05-.2,9.53-2.43c2-.51,2.37-.9,2.37-.9l1.91,3.92-.17.11c-.48-.22-1.22-.45-2.7-.08l-4.75,1.21.78,3.08c.23-1.04,1.12-1.95,2.52-2.3,1.86-.47,3.37.2,3.74,1.64.31,1.2-.56,2.08-1.57,2.34-.14-.56-.7-1.01-1.72-.75-1.36.35-2.26,1.83-1.81,3.59l4.95-1.26c1.38-.35,1.98-1.08,2.43-1.75l.18.04.35,4.78s-.72-.24-2.74.27l-9.73,2.48Z"/>
        <path class="cls-6" d="M200.85,47.08l-.02-.2c.91-.52,1.28-1.29,1.12-2.66l-1.04-8.93c-.14-1.21-.61-2-1.71-2.33l-.02-.21,9.07-1.06c4.03-.47,6.39,1.41,6.71,4.13.28,2.38-1.33,4.45-4.09,4.78-.12.01-.27.03-.41.03.95.47,1.81.89,2.75.78.78-.09,1.01-.74,1.01-.74.63.22,1.46.76,1.59,1.91.19,1.62-.67,3.13-2.9,3.39-3.4.4-4.78-4.48-7.16-4.75l.29,2.52c.16,1.37.7,2.04,1.71,2.33l.02.2-6.92.81ZM205.06,35.37l.38,3.28,3.5-.41c1.27-.15,2.04-.8,1.92-1.84-.13-1.15-1.04-1.58-2.31-1.43l-3.5.41Z"/>
        <path class="cls-6" d="M249.68,45.87l.02-.21c.81-.25,1.6-1.34,1.25-3.09l-5.25-.5c-.67,1.66-.11,2.87.64,3.27l-.02.21-6.61-.63.02-.21c.5-.3.86-.77,1.54-2.09.79-1.52,2.95-6.64,3.67-8.29.95-2.17.21-3.03-.4-3.25l.02-.21,10.02.95-.02.21c-.63.11-1.53.81-1,3.12.39,1.76,1.69,7.51,2.04,8.83.4,1.49.84,2.07,1.12,2.34l-.02.21-7.02-.67ZM249.22,34.67l-.33-.03-2.02,4.69,3.43.33-1.08-4.99Z"/>
        <path class="cls-6" d="M265.98,48.12l.05-.2c.99-.17,1.68-.91,1.99-2.11l2.08-8.74c.37-1.56-.18-2.37-.82-2.78l.05-.2,7.5,1.79c4.11.98,7.11,3.96,5.96,8.79-1.09,4.59-4.99,6.27-9.3,5.24l-7.5-1.79ZM274.1,46.67c2.49.59,4.11-.63,4.67-2.96.6-2.51-.55-4.11-2.65-4.61l-2.17-.52-1.81,7.62,1.96.47Z"/>
        <path class="cls-6" d="M294.9,56.38l.07-.19c.32-.1.71-.47.72-1.51l-.59-11.04c-.06-1.11-.16-1.94-.43-2.6l.08-.19,6.71,2.6-.08.19c-.87.19-1.85,1.23-1.89,3l-.16,6.17,4.2-4.61c1.19-1.31,1.18-2.75.62-3.5l.08-.19,6.23,2.41-.07.19c-.83.43-1.47,1.07-2.53,2.07l-7.46,7.15c-.81.84-.79,1.4-.6,1.71l-.07.19-4.83-1.87Z"/>
        <path class="cls-6" d="M313.47,64.33l.1-.18c.93.18,1.81-.35,2.45-1.52l4.3-7.87c.66-1.21.66-2.15-.03-2.91l.1-.18,8.62,4.72c1.81.99,2.34.95,2.34.95l-1.27,4.17-.19-.04c-.2-.49-.58-1.17-1.92-1.9l-4.3-2.35-1.52,2.79c.87-.6,2.15-.66,3.41.03,1.68.92,2.33,2.45,1.61,3.75-.59,1.08-1.82,1.14-2.74.64.28-.51.17-1.22-.75-1.72-1.23-.67-2.9-.2-3.77,1.39l4.48,2.45c1.25.68,2.18.56,2.96.38l.11.15-3.01,3.74s-.36-.67-2.19-1.67l-8.81-4.82Z"/>
        <path class="cls-6" d="M341.68,81.91l.12-.17c.81.26,1.66.15,2.15-.52,1.06-1.44.88-4.35-.18-9.41l-3.94,5.34c-.82,1.11-.88,1.96-.35,2.87l-.12.17-5.61-4.14.12-.17c1.02.24,1.82-.07,2.64-1.18l5.34-7.23c.82-1.11.88-1.96.35-2.87l.12-.17,4.45,3.31,1.11,8.15,1.9-2.57c.82-1.11.88-1.96.35-2.87l.12-.17,5.61,4.14-.12.17c-1.02-.24-1.82.07-2.64,1.18l-5.34,7.23c-.82,1.11-.88,1.96-.35,2.87l-.12.17-5.61-4.14Z"/>
        <path class="cls-6" d="M356.66,94.4l.14-.15c.98.38,1.81.17,2.77-.82l5.84-6.06-.64-.62c-1.17-1.13-1.75-1.51-2.71-1.61l-.06-.17,3.47-2.47s.41.74,1.37,1.67l4.69,4.52c.97.93,1.72,1.31,1.72,1.31l-2.34,3.56-.18-.05c-.13-.96-.54-1.52-1.71-2.65l-.64-.62-5.84,6.06c-.96.99-1.13,1.83-.72,2.8l-.14.15-5.02-4.84Z"/>
        <path class="cls-6" d="M386.51,109.79c1.16-.92,1.39-1.79,1.12-2.66l.16-.13,4.36,5.47-.16.13c-.71-.39-1.67-.51-2.88.45l-4.35,3.47c-3.31,2.53-6.95,1.63-9.44-1.49-2.48-3.11-2.54-6.83.73-9.44l4.36-3.47c1.1-.87,1.34-1.83,1.11-2.68l.16-.13,4.35,5.47-.14.12c-.79-.5-1.75-.48-2.91.45l-4.37,3.48c-1.39,1.11-1.92,2.61-.7,4.15,1.21,1.52,2.86,1.41,4.25.3l4.37-3.48Z"/>
        <path class="cls-6" d="M386.5,129.73l.18-.1c.85.63,1.7.65,2.89-.05l7.74-4.56c1.05-.62,1.59-1.36,1.45-2.5l.18-.1,4.63,7.87c2.06,3.5,1.29,6.42-1.07,7.81-2.06,1.21-4.61.58-6.02-1.82-.06-.11-.14-.23-.19-.37-.05,1.06-.08,2.01.4,2.83.4.67,1.09.63,1.09.63.05.66-.11,1.64-1.1,2.23-1.4.83-3.13.65-4.27-1.29-1.74-2.95,2.17-6.18,1.45-8.46l-2.18,1.29c-1.19.7-1.58,1.46-1.45,2.5l-.18.1-3.53-6ZM398.91,128.87l-2.84,1.67,1.79,3.04c.65,1.1,1.56,1.55,2.46,1.01.99-.59,1.03-1.59.38-2.69l-1.79-3.04Z"/>
        <path class="cls-6" d="M398.95,152.37l.19-.08c.62.72,1.63.85,2.87.33l8.26-3.48c1.27-.54,1.86-1.27,1.79-2.29l.19-.08,3.81,9.06c.8,1.9,1.24,2.21,1.24,2.21l-3.59,2.47-.13-.15c.14-.51.27-1.28-.32-2.68l-1.9-4.52-2.93,1.23c1.06.07,2.09.82,2.65,2.15.74,1.77.3,3.36-1.07,3.94-1.14.48-2.14-.24-2.54-1.21.53-.22.9-.85.49-1.82-.54-1.29-2.14-1.96-3.82-1.26l1.98,4.71c.55,1.31,1.36,1.8,2.09,2.14v.18s-4.69,1.05-4.69,1.05c0,0,.13-.75-.68-2.67l-3.89-9.25Z"/>
        <path class="cls-6" d="M411.18,187.64l.2-.04c.59.87,1.38,1.18,2.74.92l8.82-1.71c1.36-.26,1.98-.85,2.2-1.88l.2-.04,1.66,8.56c.81,4.19-1.17,6.53-4,7.07-2.83.55-5.17-1.33-5.87-4.93l-.65-3.34-1.58.31c-1.36.26-1.98.85-2.2,1.88l-.2.04-1.33-6.84ZM420.32,194.69c.24,1.25.95,1.96,2.04,1.75,1.17-.23,1.64-1.16,1.4-2.41l-.59-3.06-3.44.67.59,3.05Z"/>
        <path class="cls-6" d="M415.27,212.26h.21c.46.93,1.21,1.35,2.59,1.27l8.97-.5c1.21-.07,2.04-.49,2.43-1.56h.21s.51,9.11.51,9.11c.22,4.05-1.8,6.29-4.54,6.45-2.39.13-4.36-1.59-4.52-4.37,0-.12-.01-.27,0-.41-.53.92-1,1.75-.95,2.7.04.78.68,1.06.68,1.06-.25.61-.85,1.41-2,1.47-1.63.09-3.08-.86-3.21-3.1-.19-3.42,4.77-4.5,5.17-6.85l-2.53.14c-1.38.08-2.07.57-2.43,1.56h-.21s-.39-6.95-.39-6.95ZM426.7,217.18l-3.29.18.2,3.52c.07,1.28.67,2.09,1.72,2.03,1.15-.06,1.64-.94,1.57-2.21l-.2-3.52Z"/>
        <path class="cls-6" d="M415,246c.35-4.19,3.46-7.76,8.18-7.36,4.93.41,7.22,4.43,6.87,8.62-.35,4.21-3.28,7.79-8.2,7.38-4.72-.39-7.2-4.43-6.85-8.64ZM422.19,250.53c2.69.22,4.39-1.35,4.58-3.55.18-2.18-1.24-4.01-3.93-4.24-2.67-.22-4.37,1.35-4.55,3.53-.18,2.2,1.24,4.03,3.91,4.25Z"/>
        <path class="cls-6" d="M409.8,278.7c-.13-.28-.2-.72,0-1.55.18-.78.6-1.34,1.22-1.67-.28-.8-.41-1.93-.08-3.38,1.14-5.05,5.03-7.06,9.33-6.09,4.44,1.01,6.41,5.03,5.33,9.79-.37,1.63-1.13,2.58-1.29,3.24-.12.52-.01.99-.01.99l-4.57-.45v-.27c1.26-1,2.2-2.25,2.65-4.24.52-2.31-.51-4.47-3.02-5.04-2.51-.57-4.68.5-5.21,2.84-.39,1.71.1,2.92,1.31,3.19.87.2,1.61-.27,1.82-1.2l1.49.34-1.35,5.93-1.49-.34c.19-.82-.44-1.52-1.34-1.72l-1.83-.42c-1.63-.37-2.39-.29-2.75.08l-.2-.04Z"/>
        <path class="cls-6" d="M406.81,288.78l.19.07c.04,1.05.56,1.73,1.85,2.22l8.41,3.18c1.14.43,2.06.38,2.86-.44l.19.07-3.23,8.54c-1.44,3.8-4.19,5.03-6.76,4.06-2.24-.85-3.34-3.23-2.36-5.83.04-.12.09-.25.17-.38-.85.62-1.62,1.2-1.96,2.08-.28.73.19,1.24.19,1.24-.48.46-1.35.95-2.43.54-1.52-.58-2.47-2.04-1.67-4.14,1.21-3.2,6.18-2.18,7.51-4.17l-2.37-.9c-1.29-.49-2.13-.32-2.86.44l-.19-.07,2.46-6.52ZM415.26,297.9l-3.09-1.17-1.25,3.3c-.45,1.2-.23,2.18.75,2.55,1.08.41,1.88-.19,2.33-1.39l1.25-3.3Z"/>
        <path class="cls-6" d="M392.59,320.71l.18.1c-.09.85.6,2,2.35,2.37l2.54-4.63c-1.25-1.27-2.59-1.23-3.26-.7l-.18-.1,3.19-5.82.18.1c.08.58.37,1.09,1.31,2.25,1.08,1.32,4.93,5.33,6.16,6.64,1.61,1.73,2.7,1.38,3.14.92l.18.1-4.83,8.82-.18-.1c.15-.62-.14-1.72-2.47-2.15-1.77-.33-7.57-1.42-8.92-1.62-1.52-.22-2.23-.05-2.6.11l-.18-.1,3.39-6.18ZM403.07,324.71l.16-.29-3.51-3.71-1.65,3.02,5.01.98Z"/>
        <path class="cls-6" d="M377.09,344.16l.16.12c-.26,1.02.05,1.82,1.15,2.65l4.26,3.22-1.97-6.22,6.51.14-4.23-3.2c-1.1-.83-1.95-.91-2.86-.38l-.17-.12,4.2-5.56.16.12c-.26,1.02.05,1.82,1.15,2.65l7.17,5.42c1.1.83,1.95.91,2.87.38l.16.12-3.36,4.41-6.79-.35,2.21,6.41-3.33,4.44-.17-.12c.26-1.02-.05-1.82-1.15-2.65l-7.17-5.42c-1.1-.83-1.95-.91-2.86-.38l-.17-.12,4.2-5.56Z"/>
        <path class="cls-6" d="M364.31,372.55c1.9-.11,4.45-1.47,5.79-2.8,1.11-1.11,1.07-1.73.62-2.19-.54-.54-1.46,0-3.98,1.82-3.02,2.17-5.06,1.93-6.62.37-1.92-1.93-2.16-4.92,1.05-8.12,3.12-3.12,6.14-3.04,7.58-1.59,1.28,1.29.51,2.58.51,2.58-1.41-.92-3.95-.37-6.05,1.73-1.09,1.09-1.27,1.79-.72,2.35.77.77,1.9-.03,4.45-1.84,2.76-1.96,4.73-1.83,6.27-.28,1.8,1.81,1.48,4.9-.9,7.27-1.77,1.76-3.15,2.3-3.71,2.85-.51.51-.54,1.04-.54,1.04l-3.8-2.97.06-.2Z"/>
      </g>
      <path class="cls-6" d="M230.44,404.44c-95.94,0-174-78.06-174-174h6c0,92.64,75.36,168,168,168s168-75.36,168-168h6c0,95.94-78.06,174-174,174Z"/>
      <path class="cls-3" d="M306.32,80.17c-.45,0-.9-.1-1.33-.31-23.29-11.55-48.37-17.41-74.54-17.41s-51.25,5.86-74.54,17.41c-1.48.74-3.28.13-4.02-1.35-.74-1.48-.13-3.28,1.35-4.02,24.12-11.97,50.1-18.04,77.21-18.04s53.09,6.07,77.21,18.04c1.48.74,2.09,2.54,1.35,4.02-.52,1.06-1.59,1.67-2.69,1.67Z"/>
      <path class="cls-3" d="M230.44,404.44c-95.94,0-174-78.06-174-174,0-26.21,5.71-51.42,16.96-74.95.71-1.5,2.51-2.13,4-1.41,1.5.71,2.13,2.51,1.41,4-10.86,22.71-16.37,47.06-16.37,72.36,0,92.64,75.36,168,168,168s168-75.36,168-168c0-25.3-5.51-49.65-16.37-72.36-.71-1.49-.08-3.29,1.41-4,1.49-.72,3.29-.08,4,1.41,11.25,23.52,16.96,48.74,16.96,74.95,0,95.94-78.06,174-174,174Z"/>
      <path class="cls-3" d="M230.44,449.44c-58.5,0-113.49-22.78-154.86-64.14C34.22,343.93,11.44,288.94,11.44,230.44s22.78-113.49,64.14-154.86C116.95,34.22,171.94,11.44,230.44,11.44s113.49,22.78,154.86,64.14,64.14,96.36,64.14,154.86-22.78,113.49-64.14,154.86-96.36,64.14-154.86,64.14ZM230.44,17.44C112.99,17.44,17.44,112.99,17.44,230.44s95.55,213,213,213,213-95.55,213-213S347.89,17.44,230.44,17.44Z"/>
    </g>
  </g>
</svg>