<?xml version="1.0" encoding="UTF-8"?>
<svg id="Layer_2" data-name="Layer 2" xmlns="http://www.w3.org/2000/svg" viewBox="0 0 460.88 460.88">
  <defs>
    <style>
      .cls-1 {
        stroke: #fff;
      }

      .cls-1, .cls-2, .cls-3 {
        fill: none;
        stroke-miterlimit: 10;
        stroke-width: 6px;
      }

      .cls-4 {
        fill: #f9b418;
      }

      .cls-5 {
        fill: #3c4263;
      }

      .cls-6 {
        fill: #3d504b;
      }

      .cls-7 {
        fill: #f05123;
      }

      .cls-8 {
        fill: #bee2f5;
      }

      .cls-9, .cls-10, .cls-11 {
        fill: #fff;
      }

      .cls-12 {
        fill: #141921;
      }

      .cls-2, .cls-3 {
        stroke: #3d504b;
      }

      .cls-10 {
        font-family: ReginaBlack-Solid, 'Regina Black';
        font-size: 20.62px;
      }

      .cls-3 {
        stroke-linecap: round;
      }

      .cls-11 {
        font-family: FXBGRounded, FXBG;
        font-size: 13.87px;
      }

      .cls-13 {
        fill: #3f6189;
      }
    </style>
  </defs>
  <g id="Layer_10" data-name="Layer 10">
    <g>
      <g>
        <circle class="cls-12" cx="230.44" cy="230.44" r="230.44"/>
        <path class="cls-9" d="M176.36,139.35l16.85,41.68c1.19,3.56.09,7.03-2.2,9.31l39.43,39.43,39.43-39.43c-2.28-2.28-3.38-5.75-2.2-9.31l16.85-41.68c.45-1.34,1.2-2.56,2.2-3.56l36-36c-26.07-18.45-57.91-29.29-92.28-29.29s-66.2,10.84-92.28,29.29l36,36c1,1,1.75,2.22,2.2,3.56Z"/>
        <g>
          <path class="cls-4" d="M209.5,297.08c11.57-11.57,30.32-11.57,41.89,0,11.57,11.57,30.32,11.57,41.89,0,.76-.76,1.55-1.46,2.36-2.12l-65.19-65.19-65.19,65.19c.81.66,1.6,1.36,2.36,2.12,11.57,11.57,30.32,11.57,41.89,0Z"/>
          <path class="cls-12" d="M188.55,308.7c-8.34,0-16.69-3.18-23.04-9.53-.66-.66-1.37-1.3-2.13-1.91l-2.56-2.07,69.62-69.62,69.62,69.62-2.56,2.07c-.75.61-1.47,1.25-2.13,1.91-12.7,12.7-33.37,12.7-46.08,0-5.04-5.04-11.73-7.81-18.85-7.81s-13.81,2.77-18.85,7.81h0c-6.35,6.35-14.7,9.53-23.04,9.53ZM169.56,294.84l.15.15c10.39,10.39,27.31,10.39,37.7,0h0c6.15-6.15,14.34-9.54,23.04-9.54s16.88,3.39,23.04,9.54c10.39,10.39,27.31,10.39,37.7,0l.15-.15-60.89-60.89-60.89,60.89Z"/>
        </g>
        <path class="cls-8" d="M191.01,190.34c-2.28,2.28-5.75,3.38-9.31,2.2l-41.68-16.85c-1.34-.45-2.56-1.2-3.56-2.2l-36.11-36.11c-18.79,26.22-29.85,58.35-29.85,93.06,0,24.53,5.54,47.76,15.42,68.53,11.64,9.63,28.91,9,39.8-1.89,10.81-10.81,27.9-11.51,39.53-2.12l65.19-65.19-39.43-39.43Z"/>
        <g>
          <path class="cls-4" d="M295.64,294.96l18.82-18.63c1.79-1.79,4.69-1.79,6.48,0l2.62,2.62,13.44-13.44c1.44-1.44,3.32-2.19,5.21-2.24h8.72l16.84-16.84c3.58-3.58,9.38-3.58,12.95,0l7.9,7.9c-.09.62-.2,1.25-.3,1.87,1.36-8.39,2.08-17,2.08-25.78,0-34.72-11.06-66.84-29.85-93.06l-36.11,36.11c-1,1-2.22,1.75-3.56,2.2l-41.68,16.85c-3.56,1.19-7.03.09-9.31-2.2l-39.43,39.43,65.19,65.19Z"/>
          <path class="cls-12" d="M295.62,299.14l-69.37-69.37,43.62-43.62,2.09,2.09c1.66,1.66,3.97,2.22,6.2,1.51l41.76-16.88c.9-.3,1.73-.81,2.4-1.48l38.58-38.58,2.03,2.84c19.89,27.76,30.41,60.53,30.41,94.79,0,7.61-.54,15.29-1.6,22.86h.01s-.22,1.49-.22,1.49c-.07.5-.16,1-.24,1.49l-.06.39s0,.01,0,.02l-4.28-.69-.44.44-.62-.62-.51-.08h0,0c.02-.12.04-.25.06-.37l-6.83-6.83c-1.17-1.17-2.73-1.82-4.38-1.82s-3.21.64-4.38,1.82l-17.71,17.7h-9.9c-1.19.04-2.31.53-3.16,1.37l-15.53,15.53-4.72-4.72c-.63-.63-1.66-.63-2.29,0l-20.92,20.71ZM234.63,229.77l61.02,61.02,16.72-16.55c2.93-2.93,7.71-2.93,10.65.01l.53.53,11.34-11.34c1.93-1.93,4.49-3.03,7.22-3.11h.08s7.49,0,7.49,0l15.97-15.97c2.29-2.29,5.33-3.55,8.57-3.55s6.28,1.26,8.57,3.55l3.64,3.64c.65-5.84.98-11.72.98-17.56,0-31.84-9.42-62.35-27.29-88.47l-33.62,33.62c-1.3,1.29-2.89,2.29-4.62,2.88l-41.78,16.88c-3.4,1.13-7.02.71-9.99-1.08l-35.5,35.5Z"/>
        </g>
        <g>
          <path class="cls-7" d="M229.85,324.82c0-31.87,25.83-57.7,57.7-57.7s57.7,25.83,57.7,57.7"/>
          <path class="cls-12" d="M348.21,324.82h-5.92c0-30.18-24.56-54.74-54.74-54.74s-54.74,24.56-54.74,54.74h-5.92c0-33.45,27.21-60.67,60.67-60.67s60.67,27.21,60.67,60.67Z"/>
        </g>
        <g>
          <g>
            <path class="cls-12" d="M311.56,275.36l-9.46,9.46c-1.24,1.24-.36,3.35,1.39,3.35h18.92c1.75,0,2.62-2.11,1.39-3.35l-9.46-9.46c-.77-.77-2.01-.77-2.78,0Z"/>
            <path class="cls-12" d="M322.41,288.54h-18.92c-.96,0-1.79-.55-2.16-1.44-.37-.89-.17-1.86.51-2.54l9.46-9.46c.91-.91,2.39-.91,3.3,0l9.46,9.46c.68.68.87,1.65.51,2.54-.37.89-1.19,1.44-2.16,1.44ZM312.95,275.16c-.41,0-.82.16-1.13.47l-9.46,9.46c-.55.55-.54,1.26-.35,1.74s.69.98,1.47.98h18.92c.78,0,1.27-.51,1.47-.98s.21-1.18-.35-1.74l-9.46-9.46c-.31-.31-.72-.47-1.13-.47Z"/>
          </g>
          <g>
            <path class="cls-12" d="M311.56,265.9l-9.46,9.46c-1.24,1.24-.36,3.35,1.39,3.35h18.92c1.75,0,2.62-2.11,1.39-3.35l-9.46-9.46c-.77-.77-2.01-.77-2.78,0Z"/>
            <path class="cls-12" d="M322.41,279.08h-18.92c-.96,0-1.79-.55-2.16-1.44-.37-.89-.17-1.86.51-2.54l9.46-9.46c.91-.91,2.39-.91,3.3,0l9.46,9.46c.68.68.87,1.65.51,2.54-.37.89-1.19,1.44-2.16,1.44ZM312.95,265.69c-.41,0-.82.16-1.13.47l-9.46,9.46c-.55.55-.54,1.26-.35,1.74s.69.98,1.47.98h18.92c.78,0,1.27-.51,1.47-.98s.21-1.18-.35-1.74l-9.46-9.46c-.31-.31-.72-.47-1.13-.47Z"/>
          </g>
          <g>
            <path class="cls-12" d="M311.56,257.33l-9.46,9.46c-1.24,1.24-.36,3.35,1.39,3.35h18.92c1.75,0,2.62-2.11,1.39-3.35l-9.46-9.46c-.77-.77-2.01-.77-2.78,0Z"/>
            <path class="cls-12" d="M322.41,270.51h-18.92c-.96,0-1.79-.55-2.16-1.44-.37-.89-.17-1.86.51-2.54l9.46-9.46c.91-.91,2.39-.91,3.3,0l9.46,9.46c.68.68.87,1.65.51,2.54-.37.89-1.19,1.44-2.16,1.44ZM311.83,257.59l-9.46,9.46c-.55.55-.54,1.26-.35,1.73.2.48.69.98,1.47.98h18.92c.78,0,1.27-.51,1.47-.98.2-.48.21-1.18-.35-1.73l-9.46-9.46c-.62-.62-1.63-.62-2.25,0Z"/>
          </g>
          <g>
            <path class="cls-12" d="M311.97,251.45l-6.69,6.69c-.87.87-.26,2.37.98,2.37h13.38c1.24,0,1.86-1.5.98-2.37l-6.69-6.69c-.54-.54-1.42-.54-1.96,0Z"/>
            <path class="cls-12" d="M319.64,260.88h-13.38c-.72,0-1.35-.42-1.62-1.09s-.13-1.4.38-1.92l6.69-6.69c.69-.68,1.8-.68,2.49,0l6.69,6.69c.51.51.66,1.25.38,1.92s-.9,1.09-1.62,1.09ZM312.23,251.71l-6.69,6.69c-.35.35-.35.81-.22,1.11s.44.63.94.63h13.38c.5,0,.81-.32.94-.63s.13-.75-.22-1.11l-6.69-6.69c-.4-.4-1.04-.4-1.44,0h0Z"/>
          </g>
          <path class="cls-12" d="M312.95,293.99c-1.64,0-2.96-1.33-2.96-2.96v-14.28c0-1.64,1.33-2.96,2.96-2.96s2.96,1.33,2.96,2.96v14.28c0,1.64-1.33,2.96-2.96,2.96Z"/>
        </g>
        <path class="cls-12" d="M230.44,393.34c-43.51,0-84.42-16.94-115.19-47.71-30.77-30.77-47.71-71.68-47.71-115.19s16.94-84.42,47.71-115.19c30.77-30.77,71.68-47.71,115.19-47.71s84.42,16.94,115.19,47.71c30.77,30.77,47.71,71.68,47.71,115.19s-16.94,84.42-47.71,115.19c-30.77,30.77-71.68,47.71-115.19,47.71ZM230.44,73.46c-86.56,0-156.98,70.42-156.98,156.98s70.42,156.98,156.98,156.98,156.98-70.42,156.98-156.98-70.42-156.98-156.98-156.98Z"/>
        <path class="cls-12" d="M230.44,393.34c-43.51,0-84.42-16.94-115.19-47.71-30.77-30.77-47.71-71.68-47.71-115.19s16.94-84.42,47.71-115.19c30.77-30.77,71.68-47.71,115.19-47.71s84.42,16.94,115.19,47.71c30.77,30.77,47.71,71.68,47.71,115.19s-16.94,84.42-47.71,115.19c-30.77,30.77-71.68,47.71-115.19,47.71ZM230.44,73.46c-86.56,0-156.98,70.42-156.98,156.98s70.42,156.98,156.98,156.98,156.98-70.42,156.98-156.98-70.42-156.98-156.98-156.98Z"/>
        <g>
          <g>
            <path class="cls-12" d="M338.87,251.95l-9.46,9.46c-1.24,1.24-.36,3.35,1.39,3.35h18.92c1.75,0,2.62-2.11,1.39-3.35l-9.46-9.46c-.77-.77-2.01-.77-2.78,0Z"/>
            <path class="cls-12" d="M349.72,265.13h-18.92c-.96,0-1.79-.55-2.16-1.44-.37-.89-.17-1.86.51-2.54l9.46-9.46c.91-.91,2.39-.91,3.3,0l9.46,9.46c.68.68.87,1.65.51,2.54-.37.89-1.19,1.44-2.16,1.44ZM339.14,252.21l-9.46,9.46c-.55.55-.54,1.26-.35,1.73.2.48.69.98,1.47.98h18.92c.78,0,1.27-.51,1.47-.98.2-.48.21-1.18-.34-1.73l-9.46-9.46c-.62-.62-1.63-.62-2.25,0Z"/>
          </g>
          <g>
            <path class="cls-12" d="M338.87,242.49l-9.46,9.46c-1.24,1.24-.36,3.35,1.39,3.35h18.92c1.75,0,2.62-2.11,1.39-3.35l-9.46-9.46c-.77-.77-2.01-.77-2.78,0Z"/>
            <path class="cls-12" d="M349.72,255.67h-18.92c-.96,0-1.79-.55-2.16-1.44-.37-.89-.17-1.86.51-2.54l9.46-9.46c.91-.91,2.39-.91,3.3,0l9.46,9.46c.68.68.87,1.65.51,2.54-.37.89-1.19,1.44-2.16,1.44ZM339.14,242.75l-9.46,9.46c-.55.55-.54,1.26-.35,1.73.2.48.69.98,1.47.98h18.92c.78,0,1.27-.51,1.47-.98.2-.48.21-1.18-.34-1.73l-9.46-9.46c-.62-.62-1.63-.62-2.25,0Z"/>
          </g>
          <g>
            <path class="cls-12" d="M338.87,233.92l-9.46,9.46c-1.24,1.24-.36,3.35,1.39,3.35h18.92c1.75,0,2.62-2.11,1.39-3.35l-9.46-9.46c-.77-.77-2.01-.77-2.78,0Z"/>
            <path class="cls-12" d="M349.72,247.1h-18.92c-.96,0-1.79-.55-2.16-1.44-.37-.89-.17-1.86.51-2.54l9.46-9.46c.91-.91,2.39-.91,3.3,0l9.46,9.46c.68.68.87,1.65.51,2.54-.37.89-1.19,1.44-2.16,1.44ZM340.26,233.72c-.41,0-.82.16-1.13.47l-9.46,9.46c-.55.55-.54,1.26-.35,1.74.2.48.69.98,1.47.98h18.92c.78,0,1.27-.51,1.47-.98.2-.48.21-1.18-.34-1.74l-9.46-9.46c-.31-.31-.72-.47-1.13-.47Z"/>
          </g>
          <g>
            <path class="cls-12" d="M339.28,228.04l-6.69,6.69c-.87.87-.26,2.37.98,2.37h13.38c1.24,0,1.86-1.5.98-2.37l-6.69-6.69c-.54-.54-1.42-.54-1.96,0Z"/>
            <path class="cls-12" d="M346.95,237.47h-13.38c-.72,0-1.35-.42-1.62-1.09s-.13-1.4.38-1.92l6.69-6.69c.66-.66,1.82-.66,2.49,0l6.69,6.69c.51.51.66,1.25.38,1.92s-.9,1.09-1.62,1.09ZM340.26,228c-.27,0-.53.11-.72.3l-6.69,6.69c-.35.35-.35.81-.22,1.11.13.3.44.63.94.63h13.38c.5,0,.81-.32.94-.63.13-.3.13-.75-.22-1.11l-6.69-6.69c-.19-.19-.45-.3-.72-.3Z"/>
          </g>
          <path class="cls-12" d="M340.26,270.58c-1.64,0-2.96-1.33-2.96-2.96v-14.28c0-1.64,1.33-2.96,2.96-2.96s2.96,1.33,2.96,2.96v14.28c0,1.64-1.33,2.96-2.96,2.96Z"/>
        </g>
        <g>
          <g>
            <path class="cls-12" d="M372.85,229.64l-9.46,9.46c-1.24,1.24-.36,3.35,1.39,3.35h18.92c1.75,0,2.62-2.11,1.39-3.35l-9.46-9.46c-.77-.77-2.01-.77-2.78,0Z"/>
            <path class="cls-12" d="M383.69,242.82h-18.92c-.96,0-1.79-.55-2.16-1.44-.37-.89-.17-1.86.51-2.54l9.46-9.46c.91-.91,2.39-.91,3.3,0l9.46,9.46c.68.68.87,1.65.51,2.54-.37.89-1.19,1.44-2.16,1.44ZM374.23,229.44c-.41,0-.82.16-1.13.47l-9.46,9.46c-.55.55-.54,1.26-.35,1.74s.69.98,1.47.98h18.92c.78,0,1.27-.51,1.47-.98s.21-1.18-.35-1.74l-9.46-9.46c-.31-.31-.72-.47-1.13-.47Z"/>
          </g>
          <g>
            <path class="cls-12" d="M372.85,220.18l-9.46,9.46c-1.24,1.24-.36,3.35,1.39,3.35h18.92c1.75,0,2.62-2.11,1.39-3.35l-9.46-9.46c-.77-.77-2.01-.77-2.78,0Z"/>
            <path class="cls-12" d="M383.69,233.35h-18.92c-.96,0-1.79-.55-2.16-1.44-.37-.89-.17-1.86.51-2.54l9.46-9.46c.91-.91,2.39-.91,3.3,0l9.46,9.46c.68.68.87,1.65.51,2.54-.37.89-1.19,1.44-2.16,1.44ZM374.23,219.97c-.41,0-.82.16-1.13.47l-9.46,9.46c-.55.55-.54,1.26-.35,1.74s.69.98,1.47.98h18.92c.78,0,1.27-.51,1.47-.98s.21-1.18-.35-1.74l-9.46-9.46c-.31-.31-.72-.47-1.13-.47Z"/>
          </g>
          <g>
            <path class="cls-12" d="M372.85,211.61l-9.46,9.46c-1.24,1.24-.36,3.35,1.39,3.35h18.92c1.75,0,2.62-2.11,1.39-3.35l-9.46-9.46c-.77-.77-2.01-.77-2.78,0Z"/>
            <path class="cls-12" d="M383.69,224.79h-18.92c-.96,0-1.79-.55-2.16-1.44-.37-.89-.17-1.86.51-2.54l9.46-9.46c.91-.91,2.39-.91,3.3,0l9.46,9.46c.68.68.87,1.65.51,2.54-.37.89-1.19,1.44-2.16,1.44ZM374.23,211.4c-.41,0-.82.16-1.13.47l-9.46,9.46c-.55.55-.54,1.26-.35,1.74s.69.98,1.47.98h18.92c.78,0,1.27-.51,1.47-.98s.21-1.18-.35-1.74l-9.46-9.46c-.31-.31-.72-.47-1.13-.47Z"/>
          </g>
          <g>
            <path class="cls-12" d="M373.25,205.73l-6.69,6.69c-.87.87-.26,2.37.98,2.37h13.38c1.24,0,1.86-1.5.98-2.37l-6.69-6.69c-.54-.54-1.42-.54-1.96,0Z"/>
            <path class="cls-12" d="M380.92,215.16h-13.38c-.72,0-1.35-.42-1.62-1.09s-.13-1.4.38-1.92l6.69-6.69c.69-.68,1.8-.69,2.49,0l6.69,6.69c.51.51.66,1.25.38,1.92s-.9,1.09-1.62,1.09ZM373.51,205.99l-6.69,6.69c-.35.35-.35.81-.22,1.11s.44.63.94.63h13.38c.5,0,.81-.32.94-.63s.13-.75-.22-1.11l-6.69-6.69c-.4-.4-1.04-.4-1.44,0h0Z"/>
          </g>
          <path class="cls-12" d="M374.23,248.27c-1.64,0-2.96-1.33-2.96-2.96v-14.28c0-1.64,1.33-2.96,2.96-2.96s2.96,1.33,2.96,2.96v14.28c0,1.64-1.33,2.96-2.96,2.96Z"/>
        </g>
        <g>
          <path class="cls-13" d="M335.16,297.08c-11.57-11.57-30.32-11.57-41.89,0-11.57,11.57-30.32,11.57-41.89,0-11.57-11.57-30.32-11.57-41.89,0-11.57,11.57-30.32,11.57-41.89,0-11.57-11.57-30.32-11.57-41.89,0-10.91,10.91-28.2,11.52-39.83,1.87,25.66,54.05,80.74,91.43,144.56,91.43s118.89-37.38,144.56-91.43c-11.64,9.66-28.93,9.04-39.83-1.87Z"/>
          <path class="cls-12" d="M230.44,393.34c-31.42,0-61.91-8.96-88.19-25.92-25.59-16.51-46.01-39.75-59.04-67.2-.6-1.26-.24-2.76.86-3.61,1.1-.85,2.64-.83,3.71.06,10.64,8.84,26.06,8.11,35.85-1.68,6.15-6.15,14.34-9.54,23.04-9.54s16.89,3.39,23.04,9.54c10.39,10.39,27.31,10.39,37.7,0,6.15-6.15,14.34-9.54,23.04-9.54s16.88,3.39,23.04,9.54c10.39,10.39,27.31,10.39,37.7,0,6.15-6.15,14.34-9.54,23.04-9.54s16.88,3.39,23.04,9.54c9.79,9.79,25.2,10.52,35.85,1.68,1.07-.89,2.61-.91,3.71-.06,1.1.85,1.45,2.35.86,3.61-13.03,27.45-33.45,50.69-59.04,67.2-26.28,16.96-56.78,25.92-88.19,25.92ZM93.16,306.62c12.54,22.57,30.47,41.74,52.3,55.83,25.32,16.34,54.71,24.97,84.98,24.97s59.66-8.64,84.98-24.97c21.84-14.09,39.76-33.26,52.3-55.83-11.7,4.51-25.28,1.93-34.66-7.44-10.39-10.39-27.31-10.39-37.7,0-12.7,12.7-33.37,12.7-46.08,0-5.04-5.04-11.73-7.81-18.85-7.81s-13.81,2.77-18.85,7.81c-12.7,12.7-33.37,12.7-46.08,0-10.39-10.39-27.31-10.39-37.7,0-9.37,9.37-22.95,11.95-34.66,7.44Z"/>
        </g>
        <path class="cls-12" d="M188.55,335.36c-8.34,0-16.69-3.18-23.04-9.53-1.16-1.16-1.16-3.03,0-4.19,1.16-1.16,3.03-1.16,4.19,0,10.39,10.39,27.31,10.39,37.7,0,6.15-6.15,14.34-9.54,23.04-9.54s16.88,3.39,23.04,9.54c10.39,10.39,27.31,10.39,37.7,0,1.16-1.16,3.03-1.16,4.19,0,1.16,1.16,1.16,3.03,0,4.19-12.7,12.7-33.37,12.7-46.08,0-5.04-5.04-11.73-7.81-18.85-7.81s-13.81,2.77-18.85,7.81c-6.35,6.35-14.7,9.53-23.04,9.53Z"/>
        <g>
          <path class="cls-12" d="M188.57,386.1c-7.46,0-14.71-2.78-20.25-7.85l-1.57-1.44,1.97.83c7.36,3.09,15.04,5.65,22.83,7.6l2.07.52-2.13.21c-.97.09-1.95.14-2.92.14ZM170.62,379.21c5.26,4.08,11.78,6.23,18.45,6.14-6.27-1.67-12.46-3.73-18.45-6.14Z"/>
          <path class="cls-12" d="M272.31,386.1c-.97,0-1.94-.05-2.92-.14l-2.13-.21,2.07-.52c7.79-1.95,15.47-4.51,22.83-7.6l1.97-.83-1.57,1.44c-5.54,5.07-12.79,7.85-20.25,7.85ZM271.81,385.35c6.67.09,13.19-2.06,18.45-6.14-5.99,2.41-12.18,4.47-18.45,6.14Z"/>
        </g>
        <g>
          <g>
            <g>
              <path class="cls-12" d="M144.58,310.86h-9.14c-4.25,0-6.38,5.14-3.37,8.14l9.14,9.14c3,3,8.14.88,8.14-3.37v-9.14c0-2.63-2.14-4.77-4.77-4.77Z"/>
              <path class="cls-12" d="M144.55,329.92c-1.32,0-2.61-.52-3.6-1.52l-9.14-9.14c-1.5-1.5-1.92-3.64-1.11-5.6.81-1.96,2.63-3.17,4.75-3.17h9.14c2.83,0,5.14,2.31,5.14,5.14v9.14c0,2.12-1.22,3.94-3.17,4.75-.66.27-1.33.4-2,.4ZM135.44,311.23c-1.81,0-3.37,1.04-4.06,2.72s-.33,3.51.95,4.79l9.14,9.14c1.28,1.28,3.12,1.65,4.79.95,1.68-.69,2.72-2.25,2.72-4.06v-9.14c0-2.43-1.97-4.4-4.4-4.4h-9.14Z"/>
            </g>
            <g>
              <path class="cls-7" d="M276.26,195.98c-3.83,0-7.48-1.89-9.76-5.05-2.28-3.16-2.88-7.11-1.63-10.84l.03-.09,16.85-41.69c.59-1.73,1.59-3.33,2.88-4.62l41.61-41.61c2.28-2.28,5.31-3.53,8.53-3.53s6.25,1.25,8.53,3.53l24.83,24.83c2.28,2.28,3.53,5.31,3.53,8.53s-1.25,6.25-3.53,8.53l-41.61,41.61c-1.3,1.29-2.89,2.29-4.62,2.88l-41.69,16.85-.09.03c-1.26.42-2.56.63-3.86.63h0Z"/>
              <path class="cls-12" d="M334.76,91.52c2.33,0,4.66.89,6.43,2.66l24.83,24.83c3.55,3.55,3.55,9.31,0,12.87l-41.61,41.61c-1,1-2.22,1.75-3.56,2.2l-41.68,16.85c-.99.33-1.97.48-2.92.48-5.89,0-10.63-5.87-8.59-11.99l16.85-41.68c.45-1.34,1.2-2.56,2.2-3.56l41.61-41.61c1.78-1.78,4.1-2.66,6.43-2.66M334.76,85.6c-4.01,0-7.78,1.56-10.62,4.4l-41.61,41.61c-1.59,1.59-2.82,3.55-3.56,5.67l-16.79,41.53-.07.17-.06.18c-1.55,4.64-.8,9.56,2.04,13.51,2.83,3.93,7.38,6.28,12.16,6.28,1.62,0,3.23-.26,4.8-.79l.18-.06.17-.07,41.53-16.79c2.12-.74,4.08-1.97,5.67-3.56l41.61-41.61c5.86-5.86,5.86-15.39,0-21.24l-24.83-24.83c-2.84-2.84-6.61-4.4-10.62-4.4h0Z"/>
            </g>
            <path class="cls-12" d="M144.25,318.93c-.76,0-1.52-.29-2.09-.87-1.16-1.16-1.16-3.03,0-4.19l164.52-164.52c1.16-1.16,3.03-1.16,4.19,0,1.16,1.16,1.16,3.03,0,4.19l-164.52,164.52c-.58.58-1.34.87-2.09.87Z"/>
          </g>
          <g>
            <g>
              <path class="cls-12" d="M316.3,310.86h9.14c4.25,0,6.38,5.14,3.37,8.14l-9.14,9.14c-3,3-8.14.88-8.14-3.37v-9.14c0-2.63,2.14-4.77,4.77-4.77Z"/>
              <path class="cls-12" d="M316.34,329.92c-.67,0-1.34-.13-2-.4-1.96-.81-3.17-2.63-3.17-4.75v-9.14c0-2.83,2.31-5.14,5.14-5.14h9.14c2.12,0,3.94,1.22,4.75,3.17s.38,4.1-1.11,5.6l-9.14,9.14c-1,1-2.28,1.52-3.6,1.52ZM316.3,311.23c-2.43,0-4.4,1.97-4.4,4.4v9.14c0,1.81,1.04,3.37,2.72,4.06,1.67.69,3.51.33,4.79-.95l9.14-9.14c1.28-1.28,1.65-3.12.95-4.79-.69-1.68-2.25-2.72-4.06-2.72h-9.14Z"/>
            </g>
            <g>
              <path class="cls-7" d="M184.63,195.98c-1.3,0-2.6-.21-3.86-.63l-.09-.03-41.69-16.85c-1.73-.59-3.33-1.59-4.62-2.88l-41.61-41.61c-2.28-2.28-3.53-5.31-3.53-8.53s1.25-6.25,3.53-8.53l24.83-24.83c2.28-2.28,5.31-3.53,8.53-3.53s6.25,1.25,8.53,3.53l41.61,41.61c1.29,1.29,2.29,2.89,2.88,4.62l16.85,41.69.03.09c1.24,3.72.65,7.67-1.63,10.84-2.28,3.16-5.93,5.05-9.76,5.05Z"/>
              <path class="cls-12" d="M126.12,91.52c2.33,0,4.66.89,6.43,2.66l41.61,41.61c1,1,1.75,2.22,2.2,3.56l16.85,41.68c2.04,6.12-2.69,11.99-8.59,11.99-.95,0-1.93-.15-2.92-.48l-41.68-16.85c-1.34-.45-2.56-1.2-3.56-2.2l-41.61-41.61c-3.55-3.55-3.55-9.31,0-12.87l24.83-24.83c1.78-1.78,4.1-2.66,6.43-2.66M126.12,85.6c-4.01,0-7.78,1.56-10.62,4.4l-24.83,24.83c-2.84,2.84-4.4,6.61-4.4,10.62s1.56,7.78,4.4,10.62l41.61,41.61c1.59,1.59,3.55,2.82,5.67,3.56l41.53,16.79.17.07.18.06c1.57.52,3.18.79,4.8.79,4.78,0,9.33-2.35,12.16-6.28,2.84-3.95,3.59-8.87,2.04-13.51l-.06-.18-.07-.17-16.79-41.53c-.74-2.12-1.97-4.08-3.56-5.67l-41.61-41.61c-2.84-2.84-6.61-4.4-10.62-4.4h0Z"/>
            </g>
            <path class="cls-12" d="M316.64,318.93c-.76,0-1.52-.29-2.09-.87l-164.52-164.52c-1.16-1.16-1.16-3.03,0-4.19,1.16-1.16,3.03-1.16,4.19,0l164.52,164.52c1.16,1.16,1.16,3.03,0,4.19-.58.58-1.34.87-2.09.87Z"/>
          </g>
        </g>
        <g>
          <path class="cls-12" d="M250.54,125.73h-40.2c-1.64,0-2.96-1.33-2.96-2.96s1.33-2.96,2.96-2.96h40.2c1.64,0,2.96,1.33,2.96,2.96s-1.33,2.96-2.96,2.96Z"/>
          <path class="cls-12" d="M250.54,152.39h-40.2c-1.64,0-2.96-1.33-2.96-2.96s1.33-2.96,2.96-2.96h40.2c1.64,0,2.96,1.33,2.96,2.96s-1.33,2.96-2.96,2.96Z"/>
          <path class="cls-12" d="M240.49,139.06h-20.1c-1.64,0-2.96-1.33-2.96-2.96s1.33-2.96,2.96-2.96h20.1c1.64,0,2.96,1.33,2.96,2.96s-1.33,2.96-2.96,2.96Z"/>
        </g>
        <g>
          <g>
            <path class="cls-12" d="M137.2,261.07c-1.64,0-2.96-1.33-2.96-2.96,0-6.03-6.46-6.5-8.44-6.5-1.64,0-2.96-1.33-2.96-2.96s1.33-2.96,2.96-2.96c8.59,0,14.36,4.99,14.36,12.42,0,1.64-1.33,2.96-2.96,2.96Z"/>
            <path class="cls-12" d="M136.61,261.07c-1.64,0-2.96-1.33-2.96-2.96,0-7.43,5.77-12.42,14.36-12.42,1.64,0,2.96,1.33,2.96,2.96s-1.33,2.96-2.96,2.96c-1.98,0-8.44.47-8.44,6.5,0,1.64-1.33,2.96-2.96,2.96Z"/>
          </g>
          <g>
            <path class="cls-12" d="M161.44,231.3c-1.64,0-2.96-1.33-2.96-2.96,0-6.03-6.46-6.5-8.44-6.5-1.64,0-2.96-1.33-2.96-2.96s1.33-2.96,2.96-2.96c8.59,0,14.36,4.99,14.36,12.42,0,1.64-1.33,2.96-2.96,2.96Z"/>
            <path class="cls-12" d="M160.85,231.3c-1.64,0-2.96-1.33-2.96-2.96,0-7.43,5.77-12.42,14.36-12.42,1.64,0,2.96,1.33,2.96,2.96s-1.33,2.96-2.96,2.96c-1.98,0-8.44.47-8.44,6.5,0,1.64-1.33,2.96-2.96,2.96Z"/>
          </g>
          <g>
            <path class="cls-12" d="M112.57,231.3c-1.64,0-2.96-1.33-2.96-2.96,0-6.03-6.46-6.5-8.44-6.5-1.64,0-2.96-1.33-2.96-2.96s1.33-2.96,2.96-2.96c8.59,0,14.36,4.99,14.36,12.42,0,1.64-1.33,2.96-2.96,2.96Z"/>
            <path class="cls-12" d="M111.98,231.3c-1.64,0-2.96-1.33-2.96-2.96,0-7.43,5.77-12.42,14.36-12.42,1.64,0,2.96,1.33,2.96,2.96s-1.33,2.96-2.96,2.96c-1.98,0-8.44.47-8.44,6.5,0,1.64-1.33,2.96-2.96,2.96Z"/>
          </g>
        </g>
        <g>
          <path class="cls-6" d="M380.7,246.45c-3.58-3.58-9.38-3.58-12.95,0l-16.84,16.84h-8.72c-1.89.05-3.76.8-5.21,2.24l-13.44,13.44-2.62-2.62c-1.79-1.79-4.69-1.79-6.48,0l-18.82,18.63c11.63-9.4,28.72-8.69,39.53,2.12,10.9,10.9,28.19,11.52,39.82,1.87,6.59-13.89,11.25-28.87,13.61-44.61l-7.9-7.9Z"/>
          <path class="cls-12" d="M356.1,308.78c-8.35,0-16.66-3.23-23.03-9.6-9.66-9.66-24.96-10.48-35.57-1.91-1.23.99-3.02.85-4.07-.33-1.05-1.18-1-2.97.12-4.08l18.82-18.63c2.93-2.93,7.71-2.93,10.65.01l.53.53,11.34-11.34c1.93-1.93,4.49-3.03,7.22-3.11.03,0,.05,0,.08,0h7.49l15.97-15.97c2.29-2.29,5.33-3.55,8.57-3.55s6.28,1.26,8.57,3.55l7.9,7.9c.66.66.97,1.6.83,2.53-2.36,15.74-7.03,31.03-13.87,45.44-.19.39-.45.73-.78,1.01-6.08,5.05-13.44,7.54-20.78,7.54ZM314.21,285.42c8.37,0,16.7,3.23,23.05,9.57,9.64,9.64,24.72,10.49,35.34,2.09,6.22-13.25,10.54-27.27,12.85-41.7l-6.83-6.83h0c-1.17-1.17-2.73-1.82-4.38-1.82s-3.21.64-4.38,1.82l-16.84,16.84c-.56.56-1.31.87-2.09.87h-8.67c-1.19.04-2.31.53-3.16,1.37l-13.43,13.43c-1.16,1.16-3.03,1.16-4.19,0l-2.62-2.62c-.63-.63-1.66-.63-2.29,0l-7.47,7.39c1.7-.27,3.42-.41,5.13-.41Z"/>
        </g>
        <g>
          <line class="cls-6" x1="357.06" y1="257.1" x2="340.22" y2="273.94"/>
          <path class="cls-12" d="M340.22,276.9c-.76,0-1.52-.29-2.09-.87-1.16-1.16-1.16-3.03,0-4.19l16.84-16.84c1.16-1.16,3.03-1.16,4.19,0,1.16,1.16,1.16,3.03,0,4.19l-16.84,16.84c-.58.58-1.34.87-2.09.87Z"/>
        </g>
        <g>
          <path class="cls-5" d="M293.27,350.4c-11.57,11.57-30.32,11.57-41.89,0-11.57-11.57-30.32-11.57-41.89,0-11.57,11.57-30.32,11.57-41.89,0-11.57-11.57-30.32-11.57-41.89,0l-.5.5c28.12,24.59,64.93,39.49,105.22,39.49s77.1-14.9,105.22-39.49l-.5-.5c-11.57-11.57-30.32-11.57-41.89,0Z"/>
          <path class="cls-12" d="M230.44,393.34c-39.44,0-77.5-14.28-107.17-40.22l-2.39-2.09,2.74-2.73c12.7-12.7,33.37-12.7,46.08,0,10.39,10.39,27.31,10.39,37.7,0,6.15-6.15,14.34-9.54,23.04-9.54s16.88,3.39,23.04,9.54c10.39,10.39,27.31,10.39,37.7,0,12.7-12.7,33.37-12.7,46.08,0l2.74,2.73-2.39,2.09c-29.67,25.94-67.73,40.22-107.17,40.22ZM129.67,350.8c28.21,23.64,63.86,36.62,100.77,36.62s72.56-12.98,100.77-36.62c-4.77-3.96-10.72-6.12-16.99-6.12-7.12,0-13.81,2.77-18.85,7.81h0c-12.7,12.7-33.37,12.7-46.08,0-5.04-5.04-11.73-7.81-18.85-7.81s-13.81,2.77-18.85,7.81c-12.7,12.7-33.37,12.7-46.08,0-9.8-9.8-25.38-10.36-35.84-1.69Z"/>
        </g>
        <g>
          <path class="cls-12" d="M209.5,377.05c-5.05,5.05-11.46,7.89-18.04,8.53,12.48,3.13,25.54,4.8,38.99,4.8s26.51-1.67,38.99-4.8c-6.59-.64-13-3.49-18.04-8.53-11.57-11.57-30.32-11.57-41.89,0Z"/>
          <path class="cls-12" d="M230.44,393.34c-13.41,0-26.77-1.64-39.71-4.88-1.4-.35-2.34-1.66-2.23-3.09.11-1.44,1.23-2.59,2.67-2.73,6.12-.6,11.89-3.33,16.24-7.68,6.15-6.15,14.34-9.54,23.04-9.54s16.88,3.39,23.04,9.54c4.35,4.35,10.12,7.08,16.24,7.68,1.43.14,2.56,1.29,2.67,2.73.11,1.44-.84,2.74-2.23,3.09-12.94,3.24-26.3,4.88-39.71,4.88ZM203.42,385.09c17.8,3.09,36.24,3.09,54.04,0-3-1.54-5.76-3.54-8.17-5.95-5.04-5.04-11.73-7.81-18.85-7.81s-13.81,2.77-18.85,7.81h0c-2.41,2.41-5.17,4.41-8.17,5.95Z"/>
        </g>
        <path class="cls-12" d="M356.1,308.78c-8.35,0-16.66-3.23-23.03-9.6-10.39-10.39-27.31-10.39-37.7,0-12.7,12.7-33.37,12.7-46.08,0-5.04-5.04-11.73-7.81-18.85-7.81s-13.81,2.77-18.85,7.81c-12.7,12.7-33.37,12.7-46.08,0-5.04-5.04-11.73-7.81-18.85-7.81s-13.81,2.77-18.85,7.81c-11.97,11.97-30.81,12.85-43.82,2.05-1.26-1.04-1.43-2.91-.39-4.17s2.91-1.43,4.17-.39c10.64,8.84,26.06,8.11,35.85-1.68,12.7-12.7,33.37-12.7,46.08,0,10.39,10.39,27.31,10.39,37.7,0,6.15-6.15,14.34-9.54,23.04-9.54s16.88,3.39,23.04,9.54c10.39,10.39,27.31,10.39,37.7,0,12.7-12.7,33.37-12.7,46.08,0,9.79,9.79,25.2,10.52,35.85,1.68,1.26-1.04,3.13-.87,4.17.39,1.04,1.26.87,3.13-.39,4.17-6.09,5.05-13.45,7.55-20.79,7.55Z"/>
      </g>
      <g>
        <text class="cls-11" transform="translate(158.6 415.07) rotate(19.92)"><tspan x="0" y="0">r</tspan></text>
        <text class="cls-11" transform="translate(176 420.92) rotate(14.56)"><tspan x="0" y="0">r</tspan></text>
        <text class="cls-11" transform="translate(192.96 424.97) rotate(9.27)"><tspan x="0" y="0">a</tspan></text>
        <text class="cls-11" transform="translate(212.61 427.7) rotate(3.76)"><tspan x="0" y="0">p</tspan></text>
        <text class="cls-11" transform="translate(230.27 428.5) rotate(-1.29)"><tspan x="0" y="0">s</tspan></text>
        <text class="cls-11" transform="translate(248.65 427.63) rotate(-5.82)"><tspan x="0" y="0">.</tspan></text>
        <text class="cls-11" transform="translate(261.81 426.07) rotate(-10.86)"><tspan x="0" y="0">o</tspan></text>
        <text class="cls-11" transform="translate(282.91 421.47) rotate(-16.68)"><tspan x="0" y="0">r</tspan></text>
        <text class="cls-11" transform="translate(299.81 416.03) rotate(-22.07)"><tspan x="0" y="0">g</tspan></text>
      </g>
      <text class="cls-10" transform="translate(104.38 366.83) rotate(-134.79)"><tspan x="0" y="0">R</tspan></text>
      <text class="cls-10" transform="translate(86.81 348.19) rotate(-126.88)"><tspan x="0" y="0">A</tspan></text>
      <text class="cls-10" transform="translate(71.85 327.12) rotate(-119.05)"><tspan x="0" y="0">P</tspan></text>
      <text class="cls-10" transform="translate(60.3 304.99) rotate(-111.31)"><tspan x="0" y="0">P</tspan></text>
      <text class="cls-10" transform="translate(52.11 282.51) rotate(-103.73)"><tspan x="0" y="0">A</tspan></text>
      <text class="cls-10" transform="translate(46.62 257.28) rotate(-95.6)"><tspan x="0" y="0">H</tspan></text>
      <text class="cls-10" transform="translate(44.72 230.6) rotate(-87.59)"><tspan x="0" y="0">A</tspan></text>
      <text class="cls-10" transform="translate(46.44 204.82) rotate(-79.48)"><tspan x="0" y="0">N</tspan></text>
      <text class="cls-10" transform="translate(52.03 178.58) rotate(-71.14)"><tspan x="0" y="0">N</tspan></text>
      <text class="cls-10" transform="translate(61.36 153.45) rotate(-62.87)"><tspan x="0" y="0">O</tspan></text>
      <text class="cls-10" transform="translate(74.09 130.21) rotate(-54.96)"><tspan x="0" y="0">C</tspan></text>
      <text class="cls-10" transform="translate(88.77 110.35) rotate(-47.24)"><tspan x="0" y="0">K</tspan></text>
      <text class="cls-10" transform="translate(106.78 92.09) rotate(-41.18)"><tspan x="0" y="0"> </tspan></text>
      <text class="cls-10" transform="translate(117.34 83.12) rotate(-35.1)"><tspan x="0" y="0">R</tspan></text>
      <text class="cls-10" transform="translate(139.15 68.83) rotate(-28.37)"><tspan x="0" y="0">I</tspan></text>
      <text class="cls-10" transform="translate(154.03 61.12) rotate(-21.83)"><tspan x="0" y="0">V</tspan></text>
      <text class="cls-10" transform="translate(177.79 52.33) rotate(-14.29)"><tspan x="0" y="0">E</tspan></text>
      <text class="cls-10" transform="translate(200.64 47.1) rotate(-6.69)"><tspan x="0" y="0">R</tspan></text>
      <text class="cls-10" transform="translate(226.28 44.94) rotate(-.93)"><tspan x="0" y="0"> </tspan></text>
      <text class="cls-10" transform="translate(240.12 44.96) rotate(5.43)"><tspan x="0" y="0">A</tspan></text>
      <text class="cls-10" transform="translate(265.78 48.07) rotate(13.41)"><tspan x="0" y="0">D</tspan></text>
      <text class="cls-10" transform="translate(289.92 54.45) rotate(21.16)"><tspan x="0" y="0">V</tspan></text>
      <text class="cls-10" transform="translate(313.29 64.23) rotate(28.67)"><tspan x="0" y="0">E</tspan></text>
      <text class="cls-10" transform="translate(333.59 75.94) rotate(36.43)"><tspan x="0" y="0">N</tspan></text>
      <text class="cls-10" transform="translate(354.72 92.52) rotate(43.94)"><tspan x="0" y="0">T</tspan></text>
      <text class="cls-10" transform="translate(370.24 108.14) rotate(51.44)"><tspan x="0" y="0">U</tspan></text>
      <text class="cls-10" transform="translate(386.4 129.56) rotate(59.52)"><tspan x="0" y="0">R</tspan></text>
      <text class="cls-10" transform="translate(398.87 152.18) rotate(67.18)"><tspan x="0" y="0">E</tspan></text>
      <text class="cls-10" transform="translate(407.31 174.15) rotate(73)"><tspan x="0" y="0"> </tspan></text>
      <text class="cls-10" transform="translate(411.14 187.44) rotate(79.04)"><tspan x="0" y="0">P</tspan></text>
      <text class="cls-10" transform="translate(415.26 212.05) rotate(86.84)"><tspan x="0" y="0">R</tspan></text>
      <text class="cls-10" transform="translate(416.04 237.63) rotate(94.76)"><tspan x="0" y="0">O</tspan></text>
      <text class="cls-10" transform="translate(413.14 263.98) rotate(102.79)"><tspan x="0" y="0">G</tspan></text>
      <text class="cls-10" transform="translate(406.88 288.58) rotate(110.72)"><tspan x="0" y="0">R</tspan></text>
      <text class="cls-10" transform="translate(397.21 312.28) rotate(118.7)"><tspan x="0" y="0">A</tspan></text>
      <text class="cls-10" transform="translate(384.28 334.65) rotate(127.1)"><tspan x="0" y="0">M</tspan></text>
      <text class="cls-10" transform="translate(366.31 357) rotate(135.1)"><tspan x="0" y="0">S</tspan></text>
      <path class="cls-1" d="M401.44,230.44c0,94.44-76.56,171-171,171S59.44,324.88,59.44,230.44"/>
      <path class="cls-3" d="M306.32,77.17c-22.86-11.34-48.62-17.72-75.88-17.72s-53.01,6.38-75.88,17.72"/>
      <path class="cls-3" d="M76.1,156.79c-10.67,22.31-16.66,47.28-16.66,73.65,0,94.44,76.56,171,171,171s171-76.56,171-171c0-26.38-5.99-51.35-16.66-73.65"/>
      <circle class="cls-2" cx="230.44" cy="230.44" r="216"/>
    </g>
  </g>
</svg>