<?xml version="1.0" encoding="UTF-8"?>
<svg id="Layer_2" data-name="Layer 2" xmlns="http://www.w3.org/2000/svg" viewBox="0 0 2767.4 510.49">
  <defs>
    <style>
      .cls-1 {
        fill: #f9b418;
      }

      .cls-2 {
        fill: #3c4263;
      }

      .cls-3 {
        fill: #3d504b;
      }

      .cls-4 {
        fill: #f05123;
      }

      .cls-5 {
        fill: #bee2f5;
      }

      .cls-6 {
        fill: #fff;
      }

      .cls-7 {
        fill: #141921;
      }

      .cls-8 {
        fill: #3f6189;
      }
    </style>
  </defs>
  <g id="_8ptlogo-expanded" data-name="8ptlogo-expanded">
    <g>
      <g>
        <circle class="cls-7" cx="255.25" cy="255.25" r="255.25"/>
        <path class="cls-6" d="M182.21,132.23l22.76,56.29c1.6,4.8.12,9.49-2.97,12.57l53.25,53.25,53.25-53.25c-3.09-3.09-4.57-7.77-2.97-12.57l22.76-56.29c.6-1.81,1.62-3.45,2.97-4.8l48.62-48.62c-35.21-24.92-78.2-39.56-124.62-39.56s-89.41,14.65-124.62,39.56l48.62,48.62c1.35,1.35,2.37,2.99,2.97,4.8Z"/>
        <g>
          <path class="cls-1" d="M226.96,345.25c15.62-15.62,40.95-15.62,56.57,0s40.95,15.62,56.57,0c1.02-1.02,2.09-1.97,3.19-2.86l-88.05-88.05-88.05,88.05c1.1.89,2.17,1.84,3.19,2.86,15.62,15.62,40.95,15.62,56.57,0Z"/>
          <path class="cls-7" d="M198.67,360.94c-11.27,0-22.54-4.29-31.11-12.87-.89-.89-1.86-1.76-2.87-2.58l-3.46-2.79,94.02-94.02,94.02,94.02-3.46,2.79c-1.02.82-1.98,1.69-2.87,2.58-17.16,17.16-45.07,17.16-62.23,0-6.8-6.8-15.84-10.54-25.46-10.54s-18.66,3.75-25.46,10.54h0c-8.58,8.58-19.85,12.87-31.11,12.87ZM173.02,342.22l.2.2c14.04,14.04,36.88,14.04,50.91,0h0c8.31-8.31,19.36-12.89,31.11-12.89s22.8,4.58,31.11,12.89c14.04,14.04,36.88,14.04,50.91,0l.2-.2-82.23-82.23-82.23,82.23Z"/>
        </g>
        <path class="cls-5" d="M202,201.09c-3.09,3.09-7.77,4.57-12.57,2.97l-56.29-22.76c-1.81-.6-3.45-1.62-4.8-2.97l-48.77-48.77c-25.37,35.41-40.32,78.8-40.32,125.68,0,33.13,7.49,64.5,20.82,92.55,15.71,13.01,39.04,12.16,53.75-2.55,14.6-14.6,37.67-15.55,53.38-2.86l88.05-88.05-53.25-53.25Z"/>
        <g>
          <path class="cls-1" d="M343.29,342.38l25.41-25.15c2.42-2.42,6.33-2.42,8.75,0l3.54,3.54,18.14-18.14c1.95-1.95,4.48-2.95,7.03-3.02h11.77l22.74-22.74c4.83-4.83,12.66-4.83,17.49,0l10.67,10.67c-.13.84-.27,1.68-.4,2.52,1.84-11.33,2.81-22.96,2.81-34.81,0-46.88-14.94-90.27-40.32-125.68l-48.77,48.77c-1.35,1.35-2.99,2.37-4.8,2.97l-56.29,22.76c-4.8,1.6-9.49.12-12.57-2.97l-53.25,53.25,88.05,88.05Z"/>
          <path class="cls-7" d="M343.28,348.03l-93.69-93.69,58.9-58.9,2.83,2.83c2.24,2.24,5.36,3,8.37,2.04l56.4-22.79c1.21-.4,2.33-1.1,3.24-2l52.1-52.1,2.75,3.83c26.87,37.49,41.07,81.75,41.07,128.01,0,10.28-.73,20.64-2.17,30.87l.02.02-.3,2c-.1.67-.21,1.35-.32,2.02l-.09.53s0,.02,0,.03l-5.77-.94-.6.6-.83-.83-.69-.11h0,0c.03-.17.05-.33.08-.5l-9.22-9.22c-1.58-1.58-3.68-2.45-5.92-2.45s-4.34.87-5.92,2.45l-23.91,23.91h-13.37c-1.61.05-3.12.71-4.26,1.85l-20.97,20.97-6.37-6.37c-.85-.85-2.24-.85-3.09,0l-28.26,27.97ZM260.9,254.34l82.4,82.4,22.59-22.35c3.96-3.96,10.42-3.96,14.39.01l.72.72,15.32-15.31c2.61-2.61,6.07-4.1,9.75-4.19h.11s10.12,0,10.12,0l21.57-21.57c3.09-3.09,7.2-4.79,11.57-4.79s8.48,1.7,11.58,4.79l4.92,4.92c.88-7.88,1.32-15.82,1.32-23.71,0-42.99-12.73-84.2-36.86-119.48l-45.4,45.4c-1.75,1.75-3.9,3.09-6.24,3.89l-56.42,22.8c-4.59,1.53-9.48.95-13.49-1.45l-47.94,47.94Z"/>
        </g>
        <g>
          <path class="cls-4" d="M254.44,382.7c0-43.04,34.89-77.93,77.93-77.93s77.93,34.89,77.93,77.93"/>
          <path class="cls-7" d="M414.3,382.7h-8c0-40.76-33.16-73.93-73.93-73.93s-73.93,33.17-73.93,73.93h-8c0-45.18,36.75-81.93,81.93-81.93s81.93,36.75,81.93,81.93Z"/>
        </g>
        <g>
          <g>
            <path class="cls-7" d="M364.8,315.91l-12.77,12.77c-1.67,1.67-.49,4.52,1.87,4.52h25.55c2.36,0,3.54-2.86,1.87-4.52l-12.77-12.77c-1.04-1.04-2.71-1.04-3.75,0Z"/>
            <path class="cls-7" d="M379.45,333.71h-25.55c-1.3,0-2.41-.75-2.91-1.94-.5-1.2-.24-2.52.68-3.43l12.77-12.77c1.23-1.23,3.23-1.23,4.46,0l12.77,12.77c.92.92,1.18,2.23.68,3.43-.5,1.2-1.61,1.94-2.91,1.94ZM366.68,315.64c-.55,0-1.1.21-1.52.63l-12.77,12.77c-.75.75-.73,1.7-.47,2.34s.93,1.33,1.99,1.33h25.55c1.06,0,1.72-.69,1.99-1.33s.28-1.59-.47-2.34l-12.77-12.77c-.42-.42-.97-.63-1.52-.63Z"/>
          </g>
          <g>
            <path class="cls-7" d="M364.8,303.13l-12.77,12.77c-1.67,1.67-.49,4.52,1.87,4.52h25.55c2.36,0,3.54-2.86,1.87-4.52l-12.77-12.77c-1.04-1.04-2.71-1.04-3.75,0Z"/>
            <path class="cls-7" d="M379.45,320.93h-25.55c-1.3,0-2.41-.75-2.91-1.94-.5-1.2-.24-2.52.68-3.43l12.77-12.77c1.23-1.23,3.23-1.23,4.46,0l12.77,12.77c.92.92,1.18,2.23.68,3.43-.5,1.2-1.61,1.94-2.91,1.94ZM366.68,302.85c-.55,0-1.1.21-1.52.63l-12.77,12.77c-.75.75-.73,1.7-.47,2.34s.93,1.33,1.99,1.33h25.55c1.06,0,1.72-.69,1.99-1.33s.28-1.59-.47-2.34l-12.77-12.77c-.42-.42-.97-.63-1.52-.63Z"/>
          </g>
          <g>
            <path class="cls-7" d="M364.8,291.56l-12.77,12.77c-1.67,1.67-.49,4.52,1.87,4.52h25.55c2.36,0,3.54-2.86,1.87-4.52l-12.77-12.77c-1.04-1.04-2.71-1.04-3.75,0Z"/>
            <path class="cls-7" d="M379.45,309.36h-25.55c-1.3,0-2.41-.75-2.91-1.95-.5-1.2-.23-2.51.68-3.43l12.77-12.77c1.23-1.23,3.23-1.23,4.46,0l12.77,12.77c.92.92,1.18,2.23.68,3.43-.5,1.2-1.61,1.95-2.91,1.95ZM365.16,291.91l-12.77,12.77c-.75.75-.73,1.7-.47,2.34.27.64.93,1.33,1.99,1.33h25.55c1.06,0,1.72-.69,1.99-1.33.27-.64.28-1.59-.47-2.34l-12.77-12.77c-.84-.84-2.2-.84-3.04,0Z"/>
          </g>
          <g>
            <path class="cls-7" d="M365.35,283.62l-9.03,9.03c-1.18,1.18-.34,3.2,1.33,3.2h18.07c1.67,0,2.51-2.02,1.33-3.2l-9.03-9.03c-.73-.73-1.92-.73-2.65,0Z"/>
            <path class="cls-7" d="M375.71,296.35h-18.07c-.98,0-1.82-.56-2.19-1.47s-.18-1.9.51-2.59l9.03-9.03c.93-.92,2.43-.92,3.36,0l9.03,9.03c.69.69.89,1.68.51,2.59s-1.22,1.47-2.19,1.47ZM365.71,283.97l-9.03,9.03c-.48.48-.47,1.09-.3,1.5s.59.85,1.27.85h18.07c.68,0,1.1-.44,1.27-.85s.18-1.02-.3-1.5l-9.03-9.03c-.54-.54-1.41-.53-1.94,0h0Z"/>
          </g>
          <path class="cls-7" d="M366.68,341.07c-2.21,0-4-1.79-4-4v-19.29c0-2.21,1.79-4,4-4s4,1.79,4,4v19.29c0,2.21-1.79,4-4,4Z"/>
        </g>
        <path class="cls-7" d="M255.25,475.25c-58.76,0-114.01-22.88-155.56-64.44s-64.44-96.8-64.44-155.56,22.88-114.01,64.44-155.56c41.55-41.55,96.8-64.44,155.56-64.44s114.01,22.88,155.56,64.44c41.55,41.55,64.44,96.8,64.44,155.56s-22.88,114.01-64.44,155.56-96.8,64.44-155.56,64.44ZM255.25,43.25c-116.9,0-212,95.1-212,212s95.1,212,212,212,212-95.1,212-212S372.14,43.25,255.25,43.25Z"/>
        <path class="cls-7" d="M255.25,475.25c-58.76,0-114.01-22.88-155.56-64.44s-64.44-96.8-64.44-155.56,22.88-114.01,64.44-155.56c41.55-41.55,96.8-64.44,155.56-64.44s114.01,22.88,155.56,64.44c41.55,41.55,64.44,96.8,64.44,155.56s-22.88,114.01-64.44,155.56-96.8,64.44-155.56,64.44ZM255.25,43.25c-116.9,0-212,95.1-212,212s95.1,212,212,212,212-95.1,212-212S372.14,43.25,255.25,43.25Z"/>
        <g>
          <g>
            <path class="cls-7" d="M401.69,284.3l-12.77,12.77c-1.67,1.67-.49,4.52,1.87,4.52h25.55c2.36,0,3.54-2.86,1.87-4.52l-12.77-12.77c-1.04-1.04-2.71-1.04-3.75,0Z"/>
            <path class="cls-7" d="M416.33,302.1h-25.55c-1.3,0-2.41-.75-2.91-1.95-.5-1.2-.23-2.51.68-3.43l12.77-12.77c1.23-1.23,3.23-1.23,4.46,0l12.77,12.77c.92.92,1.18,2.23.68,3.43-.5,1.2-1.61,1.95-2.91,1.95ZM402.04,284.65l-12.77,12.77c-.75.75-.73,1.7-.47,2.34.27.64.93,1.33,1.99,1.33h25.55c1.06,0,1.72-.69,1.99-1.33.27-.64.28-1.59-.47-2.34l-12.77-12.77c-.84-.84-2.2-.84-3.04,0Z"/>
          </g>
          <g>
            <path class="cls-7" d="M401.69,271.51l-12.77,12.77c-1.67,1.67-.49,4.52,1.87,4.52h25.55c2.36,0,3.54-2.86,1.87-4.52l-12.77-12.77c-1.04-1.04-2.71-1.04-3.75,0Z"/>
            <path class="cls-7" d="M416.33,289.31h-25.55c-1.3,0-2.41-.75-2.91-1.95-.5-1.2-.23-2.51.68-3.43l12.77-12.77c1.23-1.23,3.23-1.23,4.46,0l12.77,12.77c.92.92,1.18,2.23.68,3.43-.5,1.2-1.61,1.95-2.91,1.95ZM402.04,271.87l-12.77,12.77c-.75.75-.73,1.7-.47,2.34.27.64.93,1.33,1.99,1.33h25.55c1.06,0,1.72-.69,1.99-1.33.27-.64.28-1.59-.47-2.34l-12.77-12.77c-.84-.84-2.2-.84-3.04,0Z"/>
          </g>
          <g>
            <path class="cls-7" d="M401.69,259.94l-12.77,12.77c-1.67,1.67-.49,4.52,1.87,4.52h25.55c2.36,0,3.54-2.86,1.87-4.52l-12.77-12.77c-1.04-1.04-2.71-1.04-3.75,0Z"/>
            <path class="cls-7" d="M416.33,277.74h-25.55c-1.3,0-2.41-.75-2.91-1.95-.5-1.2-.24-2.52.68-3.43l12.77-12.77c1.23-1.23,3.23-1.23,4.46,0l12.77,12.77c.92.92,1.18,2.23.68,3.43-.5,1.2-1.61,1.95-2.91,1.95ZM403.56,259.67c-.55,0-1.1.21-1.52.63l-12.77,12.77c-.75.75-.73,1.7-.47,2.34.27.64.93,1.33,1.99,1.33h25.55c1.06,0,1.72-.69,1.99-1.33.27-.64.28-1.6-.47-2.34l-12.77-12.77c-.42-.42-.97-.63-1.52-.63Z"/>
          </g>
          <g>
            <path class="cls-7" d="M402.23,252l-9.03,9.03c-1.18,1.18-.34,3.2,1.33,3.2h18.07c1.67,0,2.51-2.02,1.33-3.2l-9.03-9.03c-.73-.73-1.92-.73-2.65,0Z"/>
            <path class="cls-7" d="M412.59,264.74h-18.07c-.98,0-1.82-.56-2.19-1.47s-.18-1.9.52-2.59l9.03-9.03c.9-.9,2.46-.9,3.36,0l9.03,9.03c.69.69.89,1.68.52,2.59s-1.22,1.47-2.19,1.47ZM403.56,251.95c-.37,0-.71.14-.97.4l-9.03,9.03c-.48.48-.47,1.09-.3,1.5.17.41.59.85,1.27.85h18.07c.68,0,1.1-.44,1.27-.85.17-.41.18-1.02-.3-1.5l-9.03-9.03c-.26-.26-.6-.4-.97-.4Z"/>
          </g>
          <path class="cls-7" d="M403.56,309.45c-2.21,0-4-1.79-4-4v-19.29c0-2.21,1.79-4,4-4s4,1.79,4,4v19.29c0,2.21-1.79,4-4,4Z"/>
        </g>
        <g>
          <g>
            <path class="cls-7" d="M447.56,254.16l-12.77,12.77c-1.67,1.67-.49,4.52,1.87,4.52h25.55c2.36,0,3.54-2.86,1.87-4.52l-12.77-12.77c-1.04-1.04-2.71-1.04-3.75,0Z"/>
            <path class="cls-7" d="M462.21,271.96h-25.55c-1.3,0-2.41-.75-2.91-1.94-.5-1.2-.24-2.52.68-3.43l12.77-12.77c1.23-1.23,3.23-1.23,4.46,0l12.77,12.77c.92.92,1.18,2.23.68,3.43-.5,1.2-1.61,1.94-2.91,1.94ZM449.44,253.89c-.55,0-1.1.21-1.52.63l-12.77,12.77c-.75.75-.73,1.7-.47,2.34s.93,1.33,1.99,1.33h25.55c1.06,0,1.72-.69,1.99-1.33s.28-1.59-.47-2.34l-12.77-12.77c-.42-.42-.97-.63-1.52-.63Z"/>
          </g>
          <g>
            <path class="cls-7" d="M447.56,241.38l-12.77,12.77c-1.67,1.67-.49,4.52,1.87,4.52h25.55c2.36,0,3.54-2.86,1.87-4.52l-12.77-12.77c-1.04-1.04-2.71-1.04-3.75,0Z"/>
            <path class="cls-7" d="M462.21,259.18h-25.55c-1.3,0-2.41-.75-2.91-1.94-.5-1.2-.24-2.52.68-3.43l12.77-12.77c1.23-1.23,3.23-1.23,4.46,0l12.77,12.77c.92.92,1.18,2.23.68,3.43-.5,1.2-1.61,1.94-2.91,1.94ZM449.44,241.11c-.55,0-1.1.21-1.52.63l-12.77,12.77c-.75.75-.73,1.7-.47,2.34s.93,1.33,1.99,1.33h25.55c1.06,0,1.72-.69,1.99-1.33s.28-1.59-.47-2.34l-12.77-12.77c-.42-.42-.97-.63-1.52-.63Z"/>
          </g>
          <g>
            <path class="cls-7" d="M447.56,229.81l-12.77,12.77c-1.67,1.67-.49,4.52,1.87,4.52h25.55c2.36,0,3.54-2.86,1.87-4.52l-12.77-12.77c-1.04-1.04-2.71-1.04-3.75,0Z"/>
            <path class="cls-7" d="M462.21,247.61h-25.55c-1.3,0-2.41-.75-2.91-1.94-.5-1.2-.24-2.52.68-3.43l12.77-12.77c1.23-1.23,3.23-1.23,4.46,0l12.77,12.77c.92.92,1.18,2.23.68,3.43-.5,1.2-1.61,1.94-2.91,1.94ZM449.44,229.53c-.55,0-1.1.21-1.52.63l-12.77,12.77c-.75.75-.73,1.7-.47,2.34s.93,1.33,1.99,1.33h25.55c1.06,0,1.72-.69,1.99-1.33s.28-1.59-.47-2.34l-12.77-12.77c-.42-.42-.97-.63-1.52-.63Z"/>
          </g>
          <g>
            <path class="cls-7" d="M448.11,221.87l-9.03,9.03c-1.18,1.18-.34,3.2,1.33,3.2h18.07c1.67,0,2.51-2.02,1.33-3.2l-9.03-9.03c-.73-.73-1.92-.73-2.65,0Z"/>
            <path class="cls-7" d="M458.47,234.6h-18.07c-.98,0-1.82-.56-2.19-1.47s-.18-1.9.51-2.59l9.03-9.03c.93-.92,2.43-.93,3.36,0l9.03,9.03c.69.69.89,1.68.51,2.59s-1.22,1.47-2.19,1.47ZM448.47,222.22l-9.03,9.03c-.48.48-.47,1.09-.3,1.5s.59.85,1.27.85h18.07c.68,0,1.1-.44,1.27-.85s.18-1.02-.3-1.5l-9.03-9.03c-.54-.54-1.41-.53-1.94,0h0Z"/>
          </g>
          <path class="cls-7" d="M449.44,279.32c-2.21,0-4-1.79-4-4v-19.29c0-2.21,1.79-4,4-4s4,1.79,4,4v19.29c0,2.21-1.79,4-4,4Z"/>
        </g>
        <g>
          <path class="cls-8" d="M396.67,345.25c-15.62-15.62-40.95-15.62-56.57,0-15.62,15.62-40.95,15.62-56.57,0s-40.95-15.62-56.57,0c-15.62,15.62-40.95,15.62-56.57,0-15.62-15.62-40.95-15.62-56.57,0-14.73,14.73-38.08,15.56-53.8,2.52,34.66,73,109.04,123.48,195.23,123.48s160.57-50.48,195.23-123.48c-15.72,13.04-39.07,12.21-53.8-2.52Z"/>
          <path class="cls-7" d="M255.25,475.25c-42.43,0-83.61-12.1-119.1-35-34.56-22.3-62.13-53.68-79.74-90.76-.81-1.7-.32-3.72,1.16-4.87,1.48-1.15,3.57-1.12,5.01.08,14.37,11.93,35.19,10.96,48.41-2.27,8.31-8.31,19.36-12.89,31.11-12.89s22.8,4.58,31.11,12.89c14.04,14.04,36.88,14.04,50.91,0,8.31-8.31,19.36-12.89,31.11-12.89s22.8,4.58,31.11,12.89c14.04,14.04,36.88,14.04,50.91,0,8.31-8.31,19.36-12.89,31.11-12.89s22.8,4.58,31.11,12.89c13.23,13.23,34.04,14.2,48.41,2.27,1.44-1.2,3.53-1.23,5.01-.08,1.48,1.15,1.96,3.18,1.16,4.87-17.6,37.08-45.17,68.46-79.74,90.76-35.49,22.9-76.68,35-119.1,35ZM69.84,358.12c16.94,30.48,41.15,56.37,70.64,75.4,34.2,22.06,73.88,33.73,114.77,33.73s80.57-11.66,114.77-33.73c29.49-19.03,53.7-44.92,70.64-75.4-15.8,6.09-34.15,2.61-46.8-10.04-14.04-14.04-36.88-14.04-50.91,0-17.16,17.16-45.07,17.16-62.23,0-6.8-6.8-15.84-10.54-25.46-10.54s-18.66,3.75-25.46,10.54c-17.16,17.16-45.07,17.16-62.23,0-14.04-14.04-36.88-14.04-50.92,0-12.66,12.66-31,16.14-46.8,10.04Z"/>
        </g>
        <path class="cls-7" d="M198.67,396.94c-11.27,0-22.54-4.29-31.11-12.87-1.56-1.56-1.56-4.09,0-5.66,1.56-1.56,4.09-1.56,5.66,0,14.04,14.04,36.88,14.04,50.91,0,8.31-8.31,19.36-12.89,31.11-12.89s22.8,4.58,31.11,12.89c14.04,14.03,36.88,14.04,50.91,0,1.56-1.56,4.1-1.56,5.66,0s1.56,4.09,0,5.66c-17.16,17.16-45.07,17.16-62.23,0-6.8-6.8-15.84-10.54-25.46-10.54s-18.66,3.75-25.46,10.54c-8.58,8.58-19.85,12.87-31.11,12.87Z"/>
        <g>
          <path class="cls-7" d="M198.7,465.46c-10.07,0-19.86-3.76-27.34-10.6l-2.13-1.95,2.66,1.12c9.94,4.17,20.31,7.63,30.83,10.26l2.8.7-2.87.28c-1.31.13-2.63.19-3.94.19ZM174.45,456.16c7.1,5.51,15.9,8.41,24.92,8.29-8.47-2.26-16.82-5.04-24.92-8.29Z"/>
          <path class="cls-7" d="M311.79,465.46c-1.31,0-2.62-.06-3.94-.19l-2.87-.28,2.8-.7c10.51-2.63,20.89-6.09,30.83-10.26l2.66-1.12-2.13,1.95c-7.48,6.84-17.27,10.6-27.34,10.6ZM311.12,464.45c9.01.12,17.82-2.78,24.92-8.29-8.09,3.26-16.45,6.04-24.92,8.29Z"/>
        </g>
        <g>
          <g>
            <g>
              <path class="cls-7" d="M139.29,363.85h-12.34c-5.74,0-8.61,6.94-4.55,11l12.34,12.34c4.06,4.06,11,1.18,11-4.55v-12.34c0-3.56-2.88-6.44-6.44-6.44Z"/>
              <path class="cls-7" d="M139.25,389.6c-1.79,0-3.52-.71-4.86-2.05l-12.34-12.34c-2.02-2.02-2.6-4.92-1.5-7.56s3.55-4.29,6.41-4.29h12.34c3.83,0,6.94,3.11,6.94,6.94v12.34c0,2.86-1.64,5.32-4.29,6.41-.89.37-1.8.55-2.7.55ZM126.95,364.35c-2.45,0-4.55,1.41-5.49,3.67s-.44,4.74,1.29,6.47l12.34,12.34c1.73,1.73,4.21,2.22,6.47,1.29,2.26-.94,3.67-3.04,3.67-5.49v-12.34c0-3.28-2.67-5.94-5.94-5.94h-12.34Z"/>
            </g>
            <g>
              <path class="cls-4" d="M317.12,208.71c-5.18,0-10.1-2.55-13.18-6.82-3.08-4.27-3.88-9.61-2.21-14.64l.04-.12,22.76-56.3c.8-2.34,2.15-4.49,3.89-6.24l56.19-56.19c3.08-3.08,7.17-4.77,11.52-4.77s8.44,1.69,11.52,4.77l33.54,33.54c3.08,3.08,4.77,7.17,4.77,11.52s-1.69,8.44-4.77,11.52l-56.19,56.19c-1.75,1.75-3.9,3.09-6.24,3.89l-56.3,22.76-.12.04c-1.71.57-3.46.86-5.21.86h0Z"/>
              <path class="cls-7" d="M396.13,67.63c3.14,0,6.29,1.2,8.69,3.6l33.54,33.54c4.8,4.8,4.8,12.58,0,17.38l-56.19,56.19c-1.35,1.35-2.99,2.37-4.8,2.97l-56.29,22.76c-1.34.45-2.66.65-3.95.65-7.96,0-14.35-7.92-11.59-16.19l22.76-56.29c.6-1.81,1.62-3.45,2.97-4.8l56.19-56.19c2.4-2.4,5.54-3.6,8.69-3.6M396.13,59.63c-5.42,0-10.51,2.11-14.35,5.94l-56.19,56.19c-2.15,2.15-3.81,4.79-4.81,7.66l-22.67,56.09-.09.23-.08.24c-2.09,6.26-1.08,12.91,2.76,18.24,3.83,5.31,9.97,8.48,16.43,8.48,2.18,0,4.36-.36,6.48-1.06l.24-.08.23-.09,56.09-22.67c2.87-1,5.51-2.66,7.66-4.81l56.19-56.19c7.91-7.91,7.91-20.78,0-28.69l-33.54-33.54c-3.83-3.83-8.93-5.94-14.35-5.94h0Z"/>
            </g>
            <path class="cls-7" d="M138.84,374.75c-1.02,0-2.05-.39-2.83-1.17-1.56-1.56-1.56-4.09,0-5.66l222.18-222.18c1.56-1.56,4.09-1.56,5.66,0,1.56,1.56,1.56,4.09,0,5.66l-222.18,222.18c-.78.78-1.8,1.17-2.83,1.17Z"/>
          </g>
          <g>
            <g>
              <path class="cls-7" d="M371.2,363.85h12.34c5.74,0,8.61,6.94,4.55,11l-12.34,12.34c-4.06,4.06-11,1.18-11-4.55v-12.34c0-3.56,2.88-6.44,6.44-6.44Z"/>
              <path class="cls-7" d="M371.25,389.6c-.9,0-1.81-.18-2.7-.55-2.64-1.09-4.29-3.55-4.29-6.41v-12.34c0-3.83,3.11-6.94,6.94-6.94h12.34c2.86,0,5.32,1.64,6.41,4.29s.52,5.54-1.5,7.56l-12.34,12.34c-1.34,1.34-3.08,2.05-4.86,2.05ZM371.2,364.35c-3.28,0-5.94,2.67-5.94,5.94v12.34c0,2.45,1.41,4.55,3.67,5.49,2.26.93,4.74.44,6.47-1.29l12.34-12.34c1.73-1.73,2.23-4.21,1.29-6.47s-3.04-3.67-5.49-3.67h-12.34Z"/>
            </g>
            <g>
              <path class="cls-4" d="M193.37,208.71c-1.75,0-3.51-.29-5.21-.86l-.12-.04-56.3-22.76c-2.34-.8-4.49-2.14-6.24-3.89l-56.19-56.19c-3.08-3.08-4.77-7.17-4.77-11.52s1.69-8.44,4.77-11.52l33.53-33.54c3.08-3.08,7.17-4.77,11.52-4.77s8.44,1.69,11.52,4.77l56.19,56.19c1.75,1.75,3.09,3.9,3.89,6.24l22.76,56.3.04.12c1.68,5.03.87,10.36-2.21,14.64-3.08,4.27-8.01,6.82-13.18,6.82Z"/>
              <path class="cls-7" d="M114.36,67.63c3.14,0,6.29,1.2,8.69,3.6l56.19,56.19c1.35,1.35,2.37,2.99,2.97,4.8l22.76,56.29c2.76,8.27-3.63,16.19-11.59,16.19-1.29,0-2.61-.21-3.95-.65l-56.29-22.76c-1.81-.6-3.45-1.62-4.8-2.97l-56.19-56.19c-4.8-4.8-4.8-12.58,0-17.38l33.54-33.54c2.4-2.4,5.54-3.6,8.69-3.6M114.36,59.63c-5.42,0-10.51,2.11-14.35,5.94l-33.54,33.54c-3.83,3.83-5.94,8.93-5.94,14.35s2.11,10.51,5.94,14.35l56.19,56.19c2.15,2.15,4.79,3.81,7.66,4.81l56.09,22.67.23.09.24.08c2.11.7,4.29,1.06,6.48,1.06,6.46,0,12.6-3.17,16.43-8.48,3.84-5.33,4.85-11.98,2.76-18.24l-.08-.24-.09-.23-22.67-56.09c-1-2.87-2.66-5.51-4.81-7.66l-56.19-56.19c-3.83-3.83-8.93-5.94-14.35-5.94h0Z"/>
            </g>
            <path class="cls-7" d="M371.65,374.75c-1.02,0-2.05-.39-2.83-1.17l-222.18-222.18c-1.56-1.56-1.56-4.09,0-5.66,1.56-1.56,4.09-1.56,5.66,0l222.18,222.18c1.56,1.56,1.56,4.09,0,5.66-.78.78-1.8,1.17-2.83,1.17Z"/>
          </g>
        </g>
        <g>
          <path class="cls-7" d="M282.39,113.83h-54.3c-2.21,0-4-1.79-4-4s1.79-4,4-4h54.3c2.21,0,4,1.79,4,4s-1.79,4-4,4Z"/>
          <path class="cls-7" d="M282.39,149.83h-54.3c-2.21,0-4-1.79-4-4s1.79-4,4-4h54.3c2.21,0,4,1.79,4,4s-1.79,4-4,4Z"/>
          <path class="cls-7" d="M268.82,131.83h-27.15c-2.21,0-4-1.79-4-4s1.79-4,4-4h27.15c2.21,0,4,1.79,4,4s-1.79,4-4,4Z"/>
        </g>
        <g>
          <g>
            <path class="cls-7" d="M129.33,296.61c-2.21,0-4-1.79-4-4,0-8.15-8.72-8.78-11.39-8.78-2.21,0-4-1.79-4-4s1.79-4,4-4c11.6,0,19.39,6.74,19.39,16.78,0,2.21-1.79,4-4,4Z"/>
            <path class="cls-7" d="M128.53,296.61c-2.21,0-4-1.79-4-4,0-10.04,7.79-16.78,19.39-16.78,2.21,0,4,1.79,4,4s-1.79,4-4,4c-2.67,0-11.39.63-11.39,8.78,0,2.21-1.79,4-4,4Z"/>
          </g>
          <g>
            <path class="cls-7" d="M162.05,256.41c-2.21,0-4-1.79-4-4,0-8.15-8.72-8.78-11.39-8.78-2.21,0-4-1.79-4-4s1.79-4,4-4c11.6,0,19.39,6.74,19.39,16.78,0,2.21-1.79,4-4,4Z"/>
            <path class="cls-7" d="M161.26,256.41c-2.21,0-4-1.79-4-4,0-10.04,7.79-16.78,19.39-16.78,2.21,0,4,1.79,4,4s-1.79,4-4,4c-2.67,0-11.39.63-11.39,8.78,0,2.21-1.79,4-4,4Z"/>
          </g>
          <g>
            <path class="cls-7" d="M96.06,256.41c-2.21,0-4-1.79-4-4,0-8.15-8.72-8.78-11.39-8.78-2.21,0-4-1.79-4-4s1.79-4,4-4c11.6,0,19.39,6.74,19.39,16.78,0,2.21-1.79,4-4,4Z"/>
            <path class="cls-7" d="M95.27,256.41c-2.21,0-4-1.79-4-4,0-10.04,7.79-16.78,19.39-16.78,2.21,0,4,1.79,4,4s-1.79,4-4,4c-2.67,0-11.39.63-11.39,8.78,0,2.21-1.79,4-4,4Z"/>
          </g>
        </g>
        <g>
          <path class="cls-3" d="M458.18,276.87c-4.83-4.83-12.66-4.83-17.49,0l-22.74,22.74h-11.77c-2.55.07-5.08,1.07-7.03,3.02l-18.14,18.14-3.54-3.54c-2.42-2.42-6.33-2.42-8.75,0l-25.41,25.15c15.71-12.69,38.78-11.74,53.38,2.86,14.72,14.72,38.07,15.56,53.78,2.53,8.91-18.75,15.2-38.99,18.38-60.24l-10.67-10.67Z"/>
          <path class="cls-7" d="M424.95,361.04c-11.27,0-22.5-4.36-31.11-12.96-13.05-13.05-33.7-14.16-48.04-2.58-1.66,1.34-4.07,1.14-5.49-.44-1.42-1.59-1.35-4.01.17-5.51l25.41-25.15c3.96-3.96,10.42-3.96,14.39.01l.72.72,15.32-15.31c2.61-2.61,6.07-4.1,9.75-4.19.04,0,.07,0,.11,0h10.12l21.57-21.57c3.09-3.09,7.2-4.79,11.58-4.79s8.48,1.7,11.57,4.79l10.67,10.67c.9.9,1.32,2.17,1.13,3.42-3.19,21.26-9.49,41.91-18.73,61.37-.25.53-.61.99-1.06,1.36-8.22,6.81-18.16,10.18-28.06,10.18ZM368.38,329.49c11.3,0,22.55,4.36,31.12,12.93,13.02,13.01,33.38,14.17,47.73,2.83,8.41-17.9,14.24-36.83,17.35-56.32l-9.23-9.23h0c-1.58-1.58-3.68-2.45-5.92-2.45s-4.34.87-5.92,2.45l-22.74,22.74c-.75.75-1.77,1.17-2.83,1.17h-11.71c-1.61.05-3.12.71-4.26,1.85l-18.14,18.14c-1.56,1.56-4.09,1.56-5.66,0l-3.54-3.54c-.85-.85-2.24-.85-3.09,0l-10.09,9.98c2.3-.37,4.62-.55,6.93-.55Z"/>
        </g>
        <g>
          <line class="cls-3" x1="426.25" y1="291.25" x2="403.51" y2="313.98"/>
          <path class="cls-7" d="M403.51,317.99c-1.02,0-2.05-.39-2.83-1.17-1.56-1.56-1.56-4.09,0-5.66l22.74-22.74c1.56-1.56,4.09-1.56,5.66,0,1.56,1.56,1.56,4.09,0,5.66l-22.74,22.74c-.78.78-1.8,1.17-2.83,1.17Z"/>
        </g>
        <g>
          <path class="cls-2" d="M340.1,417.25c-15.62,15.62-40.95,15.62-56.57,0s-40.95-15.62-56.57,0c-15.62,15.62-40.95,15.62-56.57,0-15.62-15.62-40.95-15.62-56.57,0l-.67.67c37.98,33.2,87.69,53.33,142.1,53.33s104.12-20.13,142.1-53.33l-.67-.67c-15.62-15.62-40.95-15.62-56.57,0Z"/>
          <path class="cls-7" d="M255.25,475.25c-53.27,0-104.66-19.29-144.73-54.32l-3.22-2.82,3.7-3.69c17.15-17.16,45.07-17.16,62.23,0,14.04,14.04,36.88,14.03,50.91,0,8.31-8.31,19.36-12.89,31.11-12.89s22.8,4.58,31.11,12.89c14.04,14.03,36.88,14.03,50.91,0,17.16-17.16,45.07-17.16,62.23,0l3.69,3.69-3.22,2.82c-40.07,35.03-91.47,54.32-144.73,54.32ZM119.15,417.79c38.1,31.93,86.25,49.46,136.09,49.46s98-17.53,136.09-49.46c-6.44-5.35-14.47-8.26-22.95-8.26-9.62,0-18.66,3.75-25.46,10.54h0c-17.16,17.16-45.07,17.16-62.23,0-6.8-6.8-15.84-10.54-25.46-10.54s-18.66,3.75-25.46,10.54c-17.16,17.16-45.07,17.16-62.23,0-13.23-13.23-34.28-13.99-48.41-2.28Z"/>
        </g>
        <g>
          <path class="cls-7" d="M226.96,453.25c-6.81,6.81-15.47,10.65-24.37,11.52,16.86,4.22,34.49,6.48,52.66,6.48s35.8-2.25,52.66-6.48c-8.9-.87-17.56-4.71-24.37-11.52-15.62-15.62-40.95-15.62-56.57,0Z"/>
          <path class="cls-7" d="M255.25,475.25c-18.11,0-36.16-2.22-53.63-6.6-1.89-.47-3.16-2.24-3.02-4.18.14-1.94,1.66-3.5,3.6-3.69,8.26-.81,16.05-4.49,21.93-10.37,8.31-8.31,19.36-12.89,31.11-12.89s22.8,4.58,31.11,12.89c5.88,5.88,13.67,9.56,21.93,10.37,1.94.19,3.46,1.75,3.6,3.69.14,1.94-1.13,3.7-3.02,4.18-17.47,4.38-35.51,6.6-53.63,6.6ZM218.76,464.11c24.04,4.17,48.94,4.17,72.98,0-4.05-2.08-7.78-4.78-11.03-8.03-6.8-6.8-15.84-10.54-25.46-10.54s-18.66,3.75-25.46,10.54h0c-3.25,3.25-6.98,5.96-11.03,8.03Z"/>
        </g>
        <path class="cls-7" d="M424.95,361.04c-11.27,0-22.5-4.36-31.1-12.96-14.04-14.04-36.88-14.04-50.91,0-17.16,17.16-45.07,17.16-62.23,0-6.8-6.8-15.84-10.54-25.46-10.54s-18.66,3.75-25.46,10.54c-17.16,17.16-45.07,17.16-62.23,0-6.8-6.8-15.84-10.54-25.46-10.54s-18.66,3.75-25.46,10.54c-16.17,16.16-41.61,17.35-59.18,2.77-1.7-1.41-1.93-3.93-.52-5.63s3.93-1.93,5.63-.52c14.37,11.93,35.19,10.96,48.41-2.27,17.16-17.16,45.07-17.16,62.23,0,14.04,14.04,36.88,14.04,50.91,0,8.31-8.31,19.36-12.89,31.11-12.89s22.8,4.58,31.11,12.89c14.04,14.04,36.88,14.04,50.91,0,17.16-17.16,45.07-17.16,62.23,0,13.23,13.23,34.04,14.2,48.41,2.27,1.7-1.41,4.22-1.18,5.63.52,1.41,1.7,1.18,4.22-.52,5.63-8.22,6.82-18.17,10.19-28.08,10.19Z"/>
      </g>
      <g>
        <path class="cls-7" d="M1461.06,365.61c-1.83-.87-4.02-.64-5.64.58-10.83,8.2-17.08,15.04-33.23,11.67-11.19-2.34-30.04-15.29-49.14-30.55,38.89-26.81,64.43-71.64,64.43-122.34,0-81.88-66.62-148.5-148.5-148.5h-244.33c-1.21,0-2.24.86-2.46,2.05-.22,1.19.44,2.36,1.57,2.79.08.03,8.87,3.52,17.52,13.77,9.66,11.44,14.23,25.34,16.21,38.08v241.54c-1.5,14.03-5.91,30.18-16.87,43.16-8.65,10.25-17.44,13.74-17.52,13.77-1.13.43-1.79,1.6-1.57,2.79.22,1.19,1.25,2.05,2.46,2.05h175c1.21,0,2.24-.86,2.46-2.05.22-1.19-.44-2.36-1.57-2.79-.08-.03-8.87-3.52-17.52-13.77-10.96-12.99-15.37-29.13-16.87-43.16v-37.61c2.17,0,4.24,0,6.25,0,36.87.11,46.46,1.96,70.58,33.96,7.16,9.5,15.6,21.66,26.43,37.22,14.3,20.56,31.11,39.76,49.75,54.48,17.79,14.04,37.24,23.98,57.73,27.11,19.24,1.89,37.9-.61,55.25-9.02.98-.48,1.95-.96,2.93-1.48,42.3-22.36,53.5-91.41,6.66-113.76ZM1288.99,265.47h-100.68v-81h100.68c22.33,0,40.5,18.17,40.5,40.5s-18.17,40.5-40.5,40.5Z"/>
        <path class="cls-7" d="M993.06,365.61c-1.83-.87-4.02-.64-5.64.58-10.83,8.2-17.08,15.04-33.23,11.67-11.19-2.34-30.04-15.29-49.14-30.55,38.89-26.81,64.43-71.64,64.43-122.34,0-81.88-66.62-148.5-148.5-148.5h-244.33c-1.21,0-2.24.86-2.46,2.05-.22,1.19.44,2.36,1.57,2.79.08.03,8.87,3.52,17.52,13.77,9.66,11.44,14.23,25.34,16.21,38.08v241.54c-1.5,14.03-5.91,30.18-16.87,43.16-8.65,10.25-17.44,13.74-17.52,13.77-1.13.43-1.79,1.6-1.57,2.79.22,1.19,1.25,2.05,2.46,2.05h175c1.21,0,2.24-.86,2.46-2.05.22-1.19-.44-2.36-1.57-2.79-.08-.03-8.87-3.52-17.52-13.77-10.96-12.99-15.37-29.13-16.87-43.16v-37.61c2.17,0,4.24,0,6.25,0,36.87.11,46.46,1.96,70.58,33.96,7.16,9.5,15.6,21.66,26.43,37.22,14.3,20.56,31.11,39.76,49.75,54.48,17.79,14.04,37.24,23.98,57.73,27.11,19.24,1.89,37.9-.61,55.25-9.02.98-.48,1.95-.96,2.93-1.48,42.3-22.36,53.5-91.41,6.66-113.76ZM820.99,265.47h-100.68v-81h100.68c22.33,0,40.5,18.17,40.5,40.5s-18.17,40.5-40.5,40.5Z"/>
        <path class="cls-7" d="M2335.4,299.48c12.77-21.92,20.09-47.37,20.09-74.51,0-81.88-66.62-148.5-148.5-148.5h-244.33c-1.21,0-2.24.86-2.46,2.05-.22,1.19.44,2.36,1.57,2.79.08.03,8.87,3.52,17.52,13.77,9.66,11.44,14.23,25.34,16.21,38.08v241.54c-1.5,14.03-5.91,30.18-16.87,43.16-8.65,10.25-17.44,13.74-17.52,13.77-1.13.43-1.79,1.6-1.57,2.79.22,1.19,1.25,2.05,2.46,2.05h175c1.21,0,2.24-.86,2.46-2.05.22-1.19-.44-2.36-1.57-2.79-.08-.03-8.87-3.52-17.52-13.77-10.96-12.99-15.37-29.13-16.87-43.16v-43.35c15.33,14.92,33.86,26.56,54.46,33.79,19.02,5.29,39.32,7.17,60.11,4.99,49.49-5.19,91.48-32.3,117.34-70.64ZM2206.99,265.47h-100.68v-81h100.68c22.33,0,40.5,18.17,40.5,40.5s-18.17,40.5-40.5,40.5Z"/>
        <path class="cls-7" d="M1939.88,431.63c-.08-.03-8.87-3.52-17.52-13.77-10.96-12.99-15.37-29.13-16.87-43.16v-118.23c0-86.55-61.4-159.02-142.93-176.15-11.97-2.52-24.37-3.85-37.07-3.85s-25.1,1.33-37.07,3.85c-81.53,17.14-142.93,89.61-142.93,176.15v118.23c-1.5,14.03-5.91,30.18-16.87,43.16-8.65,10.25-17.44,13.74-17.52,13.77-1.13.43-1.79,1.6-1.57,2.79.22,1.19,1.25,2.05,2.46,2.05h175c1.21,0,2.24-.86,2.46-2.05.11-.58,0-1.15-.26-1.63-.28-.52-.73-.94-1.31-1.16-.08-.03-8.87-3.52-17.52-13.77-10.96-12.99-15.37-29.13-16.87-43.16v-37.23h144v37.23c-1.5,14.03-5.91,30.18-16.87,43.16-8.65,10.25-17.44,13.74-17.52,13.77-.58.22-1.03.64-1.31,1.16-.26.49-.36,1.06-.26,1.63.22,1.19,1.25,2.05,2.46,2.05h175c1.21,0,2.24-.86,2.46-2.05.22-1.19-.44-2.36-1.57-2.79ZM1797.49,265.47h-144v-9c0-39.7,32.3-72,72-72s72,32.3,72,72v9Z"/>
        <path class="cls-7" d="M2766.22,400.42c-1.56-1.56-4.1-1.56-5.66,0-14.04,14.04-36.88,14.04-50.92,0-8.31-8.31-19.36-12.89-31.11-12.89-.45,0-.9.02-1.36.03,12.56-12.96,20.31-30.62,20.31-50.09,0-39.76-32.24-72-72-72h-103.5c-.71,0-1.41-.02-2.1-.05-.1,0-.2-.02-.3-.02-.6-.04-1.19-.08-1.78-.14-.05,0-.1-.01-.14-.02-5.82-.62-11.26-2.47-16.08-5.29-7.7-4.5-13.78-11.47-17.15-19.83-.01-.03-.03-.07-.04-.1-.23-.57-.44-1.14-.64-1.71-.03-.09-.06-.19-.1-.28-.18-.52-.35-1.04-.5-1.57-.04-.15-.09-.3-.13-.45-.13-.48-.26-.96-.38-1.44-.05-.2-.09-.41-.14-.61-.1-.44-.19-.88-.28-1.32-.05-.25-.09-.5-.13-.75-.07-.4-.13-.81-.19-1.22-.04-.29-.08-.58-.11-.87-.04-.38-.09-.76-.12-1.14-.03-.32-.05-.64-.07-.96-.02-.36-.04-.73-.06-1.1-.01-.34-.02-.67-.03-1.01,0-.2-.01-.39-.01-.59,0-.17.01-.33.01-.5,0-.34.01-.68.03-1.02.01-.36.03-.72.05-1.07.02-.31.04-.61.07-.92.03-.33.06-.66.09-.99,0-.08.02-.16.03-.25.03-.21.05-.43.08-.64.07-.53.15-1.06.24-1.58.01-.06.02-.13.03-.19,3.38-18.95,19.93-33.35,39.86-33.35l.08.02c.23,0,.45-.02.68-.02h112.97c14.03,1.5,30.18,5.91,43.16,16.87,10.25,8.65,13.74,17.44,13.77,17.52.48,1.25,1.88,1.93,3.19,1.46,1.03-.37,1.64-1.43,1.64-2.53v-79.56c1.5-14.03,5.91-30.18,16.87-43.16,8.65-10.25,17.44-13.74,17.52-13.77,1.25-.48,1.93-1.88,1.46-3.19-.37-1.03-1.43-1.64-2.53-1.64h-207.33c-80.24,0-147.46,64.36-149.92,144h-.08c0,.75.01,1.5.03,2.25-.01.85-.03,1.7-.03,2.56l.11.03c2.54,62.37,53.9,112.16,116.89,112.16h125.15c22.37,0,40.5,18.13,40.5,40.5,0,6.83-1.7,13.26-4.69,18.9-1.4,1.1-2.75,2.28-4.02,3.55-14.04,14.04-36.88,14.04-50.92,0-8.31-8.31-19.36-12.89-31.11-12.89s-22.8,4.58-31.11,12.89c-13.22,13.23-34.04,14.2-48.41,2.27-1.7-1.41-4.22-1.18-5.63.52-1.41,1.7-1.18,4.22.52,5.63,8.22,6.82,18.16,10.2,28.08,10.19,11.27,0,22.5-4.36,31.1-12.96,6.8-6.8,15.84-10.54,25.46-10.54s18.66,3.75,25.46,10.54c17.16,17.16,45.07,17.16,62.23,0,2.08-2.08,4.38-3.88,6.84-5.37.59-.32,1.17-.66,1.74-.99,5.14-2.73,10.89-4.18,16.88-4.18,9.62,0,18.66,3.75,25.46,10.54,17.16,17.16,45.07,17.16,62.23,0,1.56-1.56,1.56-4.09,0-5.66Z"/>
        <path class="cls-7" d="M2534.53,435.32c-.76.15-1.48.51-2.06,1.1-6.91,6.91-15.95,10.41-25.02,10.52-9.06-.12-18.09-3.62-24.99-10.52-.58-.58-1.3-.95-2.06-1.1-8.17-7.61-18.74-11.79-29.96-11.79s-22.8,4.58-31.11,12.89c-14.04,14.04-36.88,14.04-50.92,0-1.56-1.56-4.1-1.56-5.66,0-1.56,1.56-1.56,4.09,0,5.66,8.58,8.58,19.85,12.87,31.11,12.87s22.54-4.29,31.11-12.87c6.8-6.8,15.84-10.54,25.46-10.54s18.66,3.75,25.46,10.54c8.7,8.7,20.15,12.97,31.57,12.86.15,0,.3.01.44.01,11.27,0,22.54-4.29,31.11-12.87,14.04-14.04,36.88-14.04,50.92,0,1.56,1.56,4.1,1.56,5.66,0,1.56-1.56,1.56-4.09,0-5.66-16.78-16.78-43.84-17.14-61.07-1.1Z"/>
        <path class="cls-7" d="M2420.48,472.64c-.75.15-1.48.51-2.06,1.1-6.69,6.69-15.56,10.42-25.01,10.53-9.45-.12-18.31-3.84-25-10.53-.58-.59-1.3-.95-2.06-1.1-17.23-16.04-44.3-15.68-61.07,1.1-1.56,1.56-1.56,4.09,0,5.66,1.56,1.56,4.1,1.56,5.66,0,14.04-14.04,36.88-14.04,50.92,0,8.31,8.31,19.36,12.89,31.11,12.89.15,0,.3,0,.45-.01.15,0,.3.01.45.01,11.75,0,22.8-4.58,31.11-12.89,14.04-14.04,36.88-14.03,50.92,0,1.56,1.56,4.1,1.56,5.66,0,1.56-1.56,1.56-4.09,0-5.66-16.78-16.78-43.84-17.14-61.07-1.1Z"/>
      </g>
    </g>
  </g>
</svg>